<mxfile host="app.diagrams.net" agent="Mozilla/5.0 (X11; Linux x86_64; rv:132.0) Gecko/20100101 Firefox/132.0" version="24.8.6" pages="2">
  <diagram name="Context" id="J9wu_--EyVaWH1z9P8W9">
    <mxGraphModel grid="1" page="1" gridSize="10" guides="1" tooltips="1" connect="1" arrows="1" fold="1" pageScale="1" pageWidth="850" pageHeight="1100" math="0" shadow="0">
      <root>
        <mxCell id="0" />
        <mxCell id="1" parent="0" />
        <mxCell id="tLLHhrk-uDKJJDFnkcIQ-17" style="edgeStyle=orthogonalEdgeStyle;rounded=0;orthogonalLoop=1;jettySize=auto;html=1;exitX=1;exitY=0.75;exitDx=0;exitDy=0;exitPerimeter=0;" edge="1" parent="1" source="tLLHhrk-uDKJJDFnkcIQ-1">
          <mxGeometry relative="1" as="geometry">
            <mxPoint x="780" y="320" as="targetPoint" />
          </mxGeometry>
        </mxCell>
        <mxCell id="tLLHhrk-uDKJJDFnkcIQ-18" value="&lt;div&gt;Unosi podatke o svojoj&lt;/div&gt;&lt;div&gt;platnoj kartici na servisu za&lt;/div&gt;&lt;div&gt;onlajn plaćanje banke prodavca&lt;br&gt;&lt;/div&gt;" style="edgeLabel;html=1;align=center;verticalAlign=middle;resizable=0;points=[];" vertex="1" connectable="0" parent="tLLHhrk-uDKJJDFnkcIQ-17">
          <mxGeometry x="-0.5246" relative="1" as="geometry">
            <mxPoint x="117" y="5" as="offset" />
          </mxGeometry>
        </mxCell>
        <mxCell id="PYZdmvQ48OPLmKqUAsUi-1" value="" style="edgeStyle=orthogonalEdgeStyle;rounded=0;orthogonalLoop=1;jettySize=auto;html=1;" edge="1" parent="1" source="tLLHhrk-uDKJJDFnkcIQ-1" target="tLLHhrk-uDKJJDFnkcIQ-6">
          <mxGeometry relative="1" as="geometry" />
        </mxCell>
        <object placeholders="1" c4Name="Kupac" c4Type="Person" c4Description="Osoba koja koristi usluge operatera" label="&lt;font style=&quot;font-size: 16px&quot;&gt;&lt;b&gt;%c4Name%&lt;/b&gt;&lt;/font&gt;&lt;div&gt;[%c4Type%]&lt;/div&gt;&lt;br&gt;&lt;div&gt;&lt;font style=&quot;font-size: 11px&quot;&gt;&lt;font color=&quot;#cccccc&quot;&gt;%c4Description%&lt;/font&gt;&lt;/div&gt;" id="tLLHhrk-uDKJJDFnkcIQ-1">
          <mxCell style="html=1;fontSize=11;dashed=0;whiteSpace=wrap;fillColor=#083F75;strokeColor=#06315C;fontColor=#ffffff;shape=mxgraph.c4.person2;align=center;metaEdit=1;points=[[0.5,0,0],[1,0.5,0],[1,0.75,0],[0.75,1,0],[0.5,1,0],[0.25,1,0],[0,0.75,0],[0,0.5,0]];resizable=0;" vertex="1" parent="1">
            <mxGeometry x="230" y="60" width="200" height="180" as="geometry" />
          </mxCell>
        </object>
        <object placeholders="1" c4Name="Web Prodavnica / Klijent" c4Type="Software System" c4Description="Web shop aplikacija telekomunikacionog operatera za prodaju usluga, koja može biti i web aplikacija bilo kojeg klijenta PSP-a." label="&lt;font style=&quot;font-size: 16px&quot;&gt;&lt;b&gt;%c4Name%&lt;/b&gt;&lt;/font&gt;&lt;div&gt;[%c4Type%]&lt;/div&gt;&lt;br&gt;&lt;div&gt;&lt;font style=&quot;font-size: 11px&quot;&gt;&lt;font color=&quot;#cccccc&quot;&gt;%c4Description%&lt;/font&gt;&lt;/div&gt;" id="tLLHhrk-uDKJJDFnkcIQ-3">
          <mxCell style="rounded=1;whiteSpace=wrap;html=1;labelBackgroundColor=none;fillColor=#1061B0;fontColor=#ffffff;align=center;arcSize=10;strokeColor=#0D5091;metaEdit=1;resizable=0;points=[[0.25,0,0],[0.5,0,0],[0.75,0,0],[1,0.25,0],[1,0.5,0],[1,0.75,0],[0.75,1,0],[0.5,1,0],[0.25,1,0],[0,0.75,0],[0,0.5,0],[0,0.25,0]];" vertex="1" parent="1">
            <mxGeometry x="-120" y="320" width="240" height="120" as="geometry" />
          </mxCell>
        </object>
        <mxCell id="tLLHhrk-uDKJJDFnkcIQ-4" style="edgeStyle=orthogonalEdgeStyle;rounded=0;orthogonalLoop=1;jettySize=auto;html=1;exitX=0;exitY=0.75;exitDx=0;exitDy=0;exitPerimeter=0;entryX=0.5;entryY=0;entryDx=0;entryDy=0;entryPerimeter=0;" edge="1" parent="1" source="tLLHhrk-uDKJJDFnkcIQ-1" target="tLLHhrk-uDKJJDFnkcIQ-3">
          <mxGeometry relative="1" as="geometry">
            <mxPoint x="60" y="160" as="sourcePoint" />
            <mxPoint x="-140" y="280" as="targetPoint" />
            <Array as="points">
              <mxPoint y="195" />
            </Array>
          </mxGeometry>
        </mxCell>
        <mxCell id="tLLHhrk-uDKJJDFnkcIQ-5" value="&lt;div&gt;Ima svoj nalog na aplikaciji putem kojeg&amp;nbsp;&lt;/div&gt;&lt;div&gt;može da pregleda i pretplaćuje se&amp;nbsp;&lt;/div&gt;&lt;div&gt;na usluge i pakete usluga.&lt;/div&gt;" style="edgeLabel;html=1;align=center;verticalAlign=middle;resizable=0;points=[];" vertex="1" connectable="0" parent="tLLHhrk-uDKJJDFnkcIQ-4">
          <mxGeometry x="-0.1" y="-3" relative="1" as="geometry">
            <mxPoint x="50" y="8" as="offset" />
          </mxGeometry>
        </mxCell>
        <object placeholders="1" c4Name="Payment Service Provider" c4Type="Software System" c4Description="Servis koji omogućava plaćanje" label="&lt;font style=&quot;font-size: 16px&quot;&gt;&lt;b&gt;%c4Name%&lt;/b&gt;&lt;/font&gt;&lt;div&gt;[%c4Type%]&lt;/div&gt;&lt;br&gt;&lt;div&gt;&lt;font style=&quot;font-size: 11px&quot;&gt;&lt;font color=&quot;#cccccc&quot;&gt;%c4Description%&lt;/font&gt;&lt;/div&gt;" id="tLLHhrk-uDKJJDFnkcIQ-6">
          <mxCell style="rounded=1;whiteSpace=wrap;html=1;labelBackgroundColor=none;fillColor=#1061B0;fontColor=#ffffff;align=center;arcSize=10;strokeColor=#0D5091;metaEdit=1;resizable=0;points=[[0.25,0,0],[0.5,0,0],[0.75,0,0],[1,0.25,0],[1,0.5,0],[1,0.75,0],[0.75,1,0],[0.5,1,0],[0.25,1,0],[0,0.75,0],[0,0.5,0],[0,0.25,0]];" vertex="1" parent="1">
            <mxGeometry x="210" y="320" width="240" height="120" as="geometry" />
          </mxCell>
        </object>
        <mxCell id="tLLHhrk-uDKJJDFnkcIQ-7" style="edgeStyle=orthogonalEdgeStyle;rounded=0;orthogonalLoop=1;jettySize=auto;html=1;exitX=0.5;exitY=1;exitDx=0;exitDy=0;exitPerimeter=0;entryX=0.5;entryY=0;entryDx=0;entryDy=0;entryPerimeter=0;" edge="1" parent="1" source="tLLHhrk-uDKJJDFnkcIQ-1" target="tLLHhrk-uDKJJDFnkcIQ-6">
          <mxGeometry relative="1" as="geometry" />
        </mxCell>
        <mxCell id="tLLHhrk-uDKJJDFnkcIQ-8" value="&lt;div&gt;Bira način plaćanja odabrane usluge,&lt;/div&gt;&lt;div&gt;pri čemu su ponuđeni načini plaćanja odobreni od &lt;br&gt;&lt;/div&gt;&lt;div&gt;strane klijenta&lt;br&gt;&lt;/div&gt;" style="edgeLabel;html=1;align=center;verticalAlign=middle;resizable=0;points=[];" vertex="1" connectable="0" parent="tLLHhrk-uDKJJDFnkcIQ-7">
          <mxGeometry x="-0.2451" relative="1" as="geometry">
            <mxPoint as="offset" />
          </mxGeometry>
        </mxCell>
        <object placeholders="1" c4Name="Super Admin" c4Type="Person" c4Description="Administrator PSP" label="&lt;font style=&quot;font-size: 16px&quot;&gt;&lt;b&gt;%c4Name%&lt;/b&gt;&lt;/font&gt;&lt;div&gt;[%c4Type%]&lt;/div&gt;&lt;br&gt;&lt;div&gt;&lt;font style=&quot;font-size: 11px&quot;&gt;&lt;font color=&quot;#cccccc&quot;&gt;%c4Description%&lt;/font&gt;&lt;/div&gt;" id="tLLHhrk-uDKJJDFnkcIQ-9">
          <mxCell style="html=1;fontSize=11;dashed=0;whiteSpace=wrap;fillColor=#083F75;strokeColor=#06315C;fontColor=#ffffff;shape=mxgraph.c4.person2;align=center;metaEdit=1;points=[[0.5,0,0],[1,0.5,0],[1,0.75,0],[0.75,1,0],[0.5,1,0],[0.25,1,0],[0,0.75,0],[0,0.5,0]];resizable=0;" vertex="1" parent="1">
            <mxGeometry x="230" y="530" width="200" height="180" as="geometry" />
          </mxCell>
        </object>
        <mxCell id="tLLHhrk-uDKJJDFnkcIQ-12" style="edgeStyle=orthogonalEdgeStyle;rounded=0;orthogonalLoop=1;jettySize=auto;html=1;exitX=0.5;exitY=0;exitDx=0;exitDy=0;exitPerimeter=0;entryX=0.5;entryY=1;entryDx=0;entryDy=0;entryPerimeter=0;" edge="1" parent="1" source="tLLHhrk-uDKJJDFnkcIQ-9" target="tLLHhrk-uDKJJDFnkcIQ-6">
          <mxGeometry relative="1" as="geometry" />
        </mxCell>
        <mxCell id="tLLHhrk-uDKJJDFnkcIQ-13" value="&lt;div&gt;Unosi podatke o&amp;nbsp;&lt;/div&gt;&lt;div&gt;servisima za plaćanje.&lt;br&gt;&lt;/div&gt;" style="edgeLabel;html=1;align=center;verticalAlign=middle;resizable=0;points=[];" vertex="1" connectable="0" parent="tLLHhrk-uDKJJDFnkcIQ-12">
          <mxGeometry y="-5" relative="1" as="geometry">
            <mxPoint x="-5" y="5" as="offset" />
          </mxGeometry>
        </mxCell>
        <object placeholders="1" c4Name="PayPal API" c4Type="Software System" c4Description="Eksterni PayPal sistem" label="&lt;font style=&quot;font-size: 16px&quot;&gt;&lt;b&gt;%c4Name%&lt;/b&gt;&lt;/font&gt;&lt;div&gt;[%c4Type%]&lt;/div&gt;&lt;br&gt;&lt;div&gt;&lt;font style=&quot;font-size: 11px&quot;&gt;&lt;font color=&quot;#cccccc&quot;&gt;%c4Description%&lt;/font&gt;&lt;/div&gt;" id="Gu_uRQBN5Dox3P_jIZ9F-1">
          <mxCell style="rounded=1;whiteSpace=wrap;html=1;labelBackgroundColor=none;fillColor=#8C8496;fontColor=#ffffff;align=center;arcSize=10;strokeColor=#736782;metaEdit=1;resizable=0;points=[[0.25,0,0],[0.5,0,0],[0.75,0,0],[1,0.25,0],[1,0.5,0],[1,0.75,0],[0.75,1,0],[0.5,1,0],[0.25,1,0],[0,0.75,0],[0,0.5,0],[0,0.25,0]];" vertex="1" parent="1">
            <mxGeometry x="660" y="640" width="240" height="120" as="geometry" />
          </mxCell>
        </object>
        <object placeholders="1" c4Name="Blockchain Explorer" c4Type="Software System" c4Description="Pruža API za proveru balansa za datu adresu" label="&lt;font style=&quot;font-size: 16px&quot;&gt;&lt;b&gt;%c4Name%&lt;/b&gt;&lt;/font&gt;&lt;div&gt;[%c4Type%]&lt;/div&gt;&lt;br&gt;&lt;div&gt;&lt;font style=&quot;font-size: 11px&quot;&gt;&lt;font color=&quot;#cccccc&quot;&gt;%c4Description%&lt;/font&gt;&lt;/div&gt;" id="Gu_uRQBN5Dox3P_jIZ9F-2">
          <mxCell style="rounded=1;whiteSpace=wrap;html=1;labelBackgroundColor=none;fillColor=#8C8496;fontColor=#ffffff;align=center;arcSize=10;strokeColor=#736782;metaEdit=1;resizable=0;points=[[0.25,0,0],[0.5,0,0],[0.75,0,0],[1,0.25,0],[1,0.5,0],[1,0.75,0],[0.75,1,0],[0.5,1,0],[0.25,1,0],[0,0.75,0],[0,0.5,0],[0,0.25,0]];" vertex="1" parent="1">
            <mxGeometry x="660" y="480" width="240" height="120" as="geometry" />
          </mxCell>
        </object>
        <object placeholders="1" c4Name="Prodavac" c4Type="Person" c4Description="Konfiguriše i upravlja svojom aplikacijom unutar PSP, ima nalog u banci" label="&lt;font style=&quot;font-size: 16px&quot;&gt;&lt;b&gt;%c4Name%&lt;/b&gt;&lt;/font&gt;&lt;div&gt;[%c4Type%]&lt;/div&gt;&lt;br&gt;&lt;div&gt;&lt;font style=&quot;font-size: 11px&quot;&gt;&lt;font color=&quot;#cccccc&quot;&gt;%c4Description%&lt;/font&gt;&lt;/div&gt;" id="A-QiLIx23PrgKNjg8E_m-1">
          <mxCell style="html=1;fontSize=11;dashed=0;whiteSpace=wrap;fillColor=#083F75;strokeColor=#06315C;fontColor=#ffffff;shape=mxgraph.c4.person2;align=center;metaEdit=1;points=[[0.5,0,0],[1,0.5,0],[1,0.75,0],[0.75,1,0],[0.5,1,0],[0.25,1,0],[0,0.75,0],[0,0.5,0]];resizable=0;" vertex="1" parent="1">
            <mxGeometry x="-110" y="530" width="200" height="180" as="geometry" />
          </mxCell>
        </object>
        <mxCell id="A-QiLIx23PrgKNjg8E_m-2" style="edgeStyle=orthogonalEdgeStyle;rounded=0;orthogonalLoop=1;jettySize=auto;html=1;exitX=0.5;exitY=0;exitDx=0;exitDy=0;exitPerimeter=0;entryX=0.25;entryY=1;entryDx=0;entryDy=0;entryPerimeter=0;" edge="1" parent="1" source="A-QiLIx23PrgKNjg8E_m-1" target="tLLHhrk-uDKJJDFnkcIQ-6">
          <mxGeometry relative="1" as="geometry" />
        </mxCell>
        <mxCell id="A-QiLIx23PrgKNjg8E_m-3" value="&lt;div&gt;Upravlja svojom veb prodavnicom (klijentskom aplikacijom)&lt;/div&gt;&lt;div&gt;u okviru PSP. Bira načine plaćanja za svoju app&lt;/div&gt;" style="edgeLabel;html=1;align=center;verticalAlign=middle;resizable=0;points=[];" connectable="0" vertex="1" parent="A-QiLIx23PrgKNjg8E_m-2">
          <mxGeometry x="-0.1444" y="-4" relative="1" as="geometry">
            <mxPoint as="offset" />
          </mxGeometry>
        </mxCell>
        <mxCell id="A-QiLIx23PrgKNjg8E_m-6" style="edgeStyle=orthogonalEdgeStyle;rounded=0;orthogonalLoop=1;jettySize=auto;html=1;exitX=0.5;exitY=1;exitDx=0;exitDy=0;exitPerimeter=0;entryX=0.25;entryY=0;entryDx=0;entryDy=0;entryPerimeter=0;" edge="1" parent="1" source="A-QiLIx23PrgKNjg8E_m-1" target="Iddg0M9WeafohtTWXWYG-1">
          <mxGeometry relative="1" as="geometry">
            <mxPoint x="660" y="410" as="targetPoint" />
            <Array as="points">
              <mxPoint x="-10" y="780" />
              <mxPoint x="480" y="780" />
              <mxPoint x="480" y="280" />
              <mxPoint x="720" y="280" />
            </Array>
          </mxGeometry>
        </mxCell>
        <mxCell id="A-QiLIx23PrgKNjg8E_m-7" value="&lt;div&gt;Otvara i upravlja svojim računom u banci&lt;/div&gt;" style="edgeLabel;html=1;align=center;verticalAlign=middle;resizable=0;points=[];" connectable="0" vertex="1" parent="A-QiLIx23PrgKNjg8E_m-6">
          <mxGeometry x="-0.2775" y="2" relative="1" as="geometry">
            <mxPoint x="-194" as="offset" />
          </mxGeometry>
        </mxCell>
        <mxCell id="A-QiLIx23PrgKNjg8E_m-8" style="edgeStyle=orthogonalEdgeStyle;rounded=0;orthogonalLoop=1;jettySize=auto;html=1;exitX=1;exitY=0.75;exitDx=0;exitDy=0;exitPerimeter=0;entryX=0.5;entryY=0;entryDx=0;entryDy=0;entryPerimeter=0;" edge="1" parent="1" source="tLLHhrk-uDKJJDFnkcIQ-1" target="Iddg0M9WeafohtTWXWYG-3">
          <mxGeometry relative="1" as="geometry">
            <mxPoint x="980" y="250" as="targetPoint" />
            <Array as="points">
              <mxPoint x="430" y="250" />
              <mxPoint x="1480" y="250" />
            </Array>
          </mxGeometry>
        </mxCell>
        <mxCell id="A-QiLIx23PrgKNjg8E_m-9" value="&lt;div&gt;Otvara i upravlja svojim&lt;/div&gt;&lt;div&gt;računom u banci&lt;br&gt;&lt;/div&gt;" style="edgeLabel;html=1;align=center;verticalAlign=middle;resizable=0;points=[];" connectable="0" vertex="1" parent="A-QiLIx23PrgKNjg8E_m-8">
          <mxGeometry x="0.7767" y="2" relative="1" as="geometry">
            <mxPoint x="-419" y="2" as="offset" />
          </mxGeometry>
        </mxCell>
        <object placeholders="1" c4Name="Banka prodavca" c4Type="Software System" c4Description="Banka u kojoj prodavac (klijent PSP-a) ima otvoren račun" label="&lt;font style=&quot;font-size: 16px&quot;&gt;&lt;b&gt;%c4Name%&lt;/b&gt;&lt;/font&gt;&lt;div&gt;[%c4Type%]&lt;/div&gt;&lt;br&gt;&lt;div&gt;&lt;font style=&quot;font-size: 11px&quot;&gt;&lt;font color=&quot;#cccccc&quot;&gt;%c4Description%&lt;/font&gt;&lt;/div&gt;" id="Iddg0M9WeafohtTWXWYG-1">
          <mxCell style="rounded=1;whiteSpace=wrap;html=1;labelBackgroundColor=none;fillColor=#8C8496;fontColor=#ffffff;align=center;arcSize=10;strokeColor=#736782;metaEdit=1;resizable=0;points=[[0.25,0,0],[0.5,0,0],[0.75,0,0],[1,0.25,0],[1,0.5,0],[1,0.75,0],[0.75,1,0],[0.5,1,0],[0.25,1,0],[0,0.75,0],[0,0.5,0],[0,0.25,0]];" vertex="1" parent="1">
            <mxGeometry x="660" y="320" width="240" height="120" as="geometry" />
          </mxCell>
        </object>
        <object placeholders="1" c4Name="Payment Card Center" c4Type="Software System" c4Description="Centar za platne kartice koji prihvata zahtev za transakciju od banke prodavca i prosleđuje ga banci kupca" label="&lt;font style=&quot;font-size: 16px&quot;&gt;&lt;b&gt;%c4Name%&lt;/b&gt;&lt;/font&gt;&lt;div&gt;[%c4Type%]&lt;/div&gt;&lt;br&gt;&lt;div&gt;&lt;font style=&quot;font-size: 11px&quot;&gt;&lt;font color=&quot;#cccccc&quot;&gt;%c4Description%&lt;/font&gt;&lt;/div&gt;" id="Iddg0M9WeafohtTWXWYG-2">
          <mxCell style="rounded=1;whiteSpace=wrap;html=1;labelBackgroundColor=none;fillColor=#8C8496;fontColor=#ffffff;align=center;arcSize=10;strokeColor=#736782;metaEdit=1;resizable=0;points=[[0.25,0,0],[0.5,0,0],[0.75,0,0],[1,0.25,0],[1,0.5,0],[1,0.75,0],[0.75,1,0],[0.5,1,0],[0.25,1,0],[0,0.75,0],[0,0.5,0],[0,0.25,0]];" vertex="1" parent="1">
            <mxGeometry x="1000" y="320" width="240" height="120" as="geometry" />
          </mxCell>
        </object>
        <object placeholders="1" c4Name="Banka kupca" c4Type="Software System" c4Description="Banka u kojoj kupac ima račun, prati njegovo stanje na računu" label="&lt;font style=&quot;font-size: 16px&quot;&gt;&lt;b&gt;%c4Name%&lt;/b&gt;&lt;/font&gt;&lt;div&gt;[%c4Type%]&lt;/div&gt;&lt;br&gt;&lt;div&gt;&lt;font style=&quot;font-size: 11px&quot;&gt;&lt;font color=&quot;#cccccc&quot;&gt;%c4Description%&lt;/font&gt;&lt;/div&gt;" id="Iddg0M9WeafohtTWXWYG-3">
          <mxCell style="rounded=1;whiteSpace=wrap;html=1;labelBackgroundColor=none;fillColor=#8C8496;fontColor=#ffffff;align=center;arcSize=10;strokeColor=#736782;metaEdit=1;resizable=0;points=[[0.25,0,0],[0.5,0,0],[0.75,0,0],[1,0.25,0],[1,0.5,0],[1,0.75,0],[0.75,1,0],[0.5,1,0],[0.25,1,0],[0,0.75,0],[0,0.5,0],[0,0.25,0]];" vertex="1" parent="1">
            <mxGeometry x="1360" y="320" width="240" height="120" as="geometry" />
          </mxCell>
        </object>
        <mxCell id="-Dw7CQ5qiZ1diztkijuW-1" style="edgeStyle=orthogonalEdgeStyle;rounded=0;orthogonalLoop=1;jettySize=auto;html=1;exitX=1;exitY=0.5;exitDx=0;exitDy=0;exitPerimeter=0;entryX=0;entryY=0.5;entryDx=0;entryDy=0;entryPerimeter=0;" edge="1" parent="1" source="tLLHhrk-uDKJJDFnkcIQ-6" target="Iddg0M9WeafohtTWXWYG-1">
          <mxGeometry relative="1" as="geometry" />
        </mxCell>
        <mxCell id="-Dw7CQ5qiZ1diztkijuW-2" value="&lt;div&gt;Dobavlja PAYMENT_URL&lt;/div&gt;&lt;div&gt;za obavljanje plaćanja&lt;br&gt;&lt;/div&gt;" style="edgeLabel;html=1;align=center;verticalAlign=middle;resizable=0;points=[];" connectable="0" vertex="1" parent="-Dw7CQ5qiZ1diztkijuW-1">
          <mxGeometry x="-0.1221" y="2" relative="1" as="geometry">
            <mxPoint x="38" y="2" as="offset" />
          </mxGeometry>
        </mxCell>
        <mxCell id="-Dw7CQ5qiZ1diztkijuW-3" style="edgeStyle=orthogonalEdgeStyle;rounded=0;orthogonalLoop=1;jettySize=auto;html=1;exitX=1;exitY=0.5;exitDx=0;exitDy=0;exitPerimeter=0;entryX=0;entryY=0.5;entryDx=0;entryDy=0;entryPerimeter=0;" edge="1" parent="1" source="tLLHhrk-uDKJJDFnkcIQ-6" target="Gu_uRQBN5Dox3P_jIZ9F-2">
          <mxGeometry relative="1" as="geometry">
            <Array as="points">
              <mxPoint x="500" y="380" />
              <mxPoint x="500" y="540" />
            </Array>
          </mxGeometry>
        </mxCell>
        <mxCell id="-Dw7CQ5qiZ1diztkijuW-4" value="&lt;div&gt;Proverava stanje na&lt;/div&gt;&lt;div&gt;deposit adresi&lt;br&gt;&lt;/div&gt;" style="edgeLabel;html=1;align=center;verticalAlign=middle;resizable=0;points=[];" connectable="0" vertex="1" parent="1">
          <mxGeometry x="580.0047058823532" y="540" as="geometry">
            <mxPoint x="-9" y="-5" as="offset" />
          </mxGeometry>
        </mxCell>
        <mxCell id="-Dw7CQ5qiZ1diztkijuW-5" style="edgeStyle=orthogonalEdgeStyle;rounded=0;orthogonalLoop=1;jettySize=auto;html=1;exitX=1;exitY=0.5;exitDx=0;exitDy=0;exitPerimeter=0;entryX=0;entryY=0.5;entryDx=0;entryDy=0;entryPerimeter=0;" edge="1" parent="1" source="tLLHhrk-uDKJJDFnkcIQ-6" target="Gu_uRQBN5Dox3P_jIZ9F-1">
          <mxGeometry relative="1" as="geometry">
            <Array as="points">
              <mxPoint x="500" y="380" />
              <mxPoint x="500" y="700" />
            </Array>
          </mxGeometry>
        </mxCell>
      </root>
    </mxGraphModel>
  </diagram>
  <diagram id="Ug07hzjZY8NPnnNq7Vm1" name="Container">
    <mxGraphModel grid="1" page="1" gridSize="10" guides="1" tooltips="1" connect="1" arrows="1" fold="1" pageScale="1" pageWidth="850" pageHeight="1100" math="0" shadow="0">
      <root>
        <mxCell id="0" />
        <mxCell id="1" parent="0" />
        <object placeholders="1" c4Name="Payment Service Provider" c4Type="SystemScopeBoundary" c4Application="Software System" label="&lt;font style=&quot;font-size: 16px&quot;&gt;&lt;b&gt;&lt;div style=&quot;text-align: left&quot;&gt;%c4Name%&lt;/div&gt;&lt;/b&gt;&lt;/font&gt;&lt;div style=&quot;text-align: left&quot;&gt;[%c4Application%]&lt;/div&gt;" id="9SvNAXhWX8-R4dEV2yWT-1">
          <mxCell style="rounded=1;fontSize=11;whiteSpace=wrap;html=1;dashed=1;arcSize=20;fillColor=none;strokeColor=#666666;fontColor=#333333;labelBackgroundColor=none;align=left;verticalAlign=bottom;labelBorderColor=none;spacingTop=0;spacing=10;dashPattern=8 4;metaEdit=1;rotatable=0;perimeter=rectanglePerimeter;noLabel=0;labelPadding=0;allowArrows=0;connectable=0;expand=0;recursiveResize=0;editable=1;pointerEvents=0;absoluteArcSize=1;points=[[0.25,0,0],[0.5,0,0],[0.75,0,0],[1,0.25,0],[1,0.5,0],[1,0.75,0],[0.75,1,0],[0.5,1,0],[0.25,1,0],[0,0.75,0],[0,0.5,0],[0,0.25,0]];" vertex="1" parent="1">
            <mxGeometry x="130" y="110" width="1630" height="890" as="geometry" />
          </mxCell>
        </object>
        <object placeholders="1" c4Name="Web Prodavnica / Klijent" c4Type="SystemScopeBoundary" c4Application="Software System" label="&lt;font style=&quot;font-size: 16px&quot;&gt;&lt;b&gt;&lt;div style=&quot;text-align: left&quot;&gt;%c4Name%&lt;/div&gt;&lt;/b&gt;&lt;/font&gt;&lt;div style=&quot;text-align: left&quot;&gt;[%c4Application%]&lt;/div&gt;" id="BkgZ91S71N9rqs8H-Awl-1">
          <mxCell style="rounded=1;fontSize=11;whiteSpace=wrap;html=1;dashed=1;arcSize=20;fillColor=none;strokeColor=#666666;fontColor=#333333;labelBackgroundColor=none;align=left;verticalAlign=bottom;labelBorderColor=none;spacingTop=0;spacing=10;dashPattern=8 4;metaEdit=1;rotatable=0;perimeter=rectanglePerimeter;noLabel=0;labelPadding=0;allowArrows=0;connectable=0;expand=0;recursiveResize=0;editable=1;pointerEvents=0;absoluteArcSize=1;points=[[0.25,0,0],[0.5,0,0],[0.75,0,0],[1,0.25,0],[1,0.5,0],[1,0.75,0],[0.75,1,0],[0.5,1,0],[0.25,1,0],[0,0.75,0],[0,0.5,0],[0,0.25,0]];" vertex="1" parent="1">
            <mxGeometry x="-770" y="110" width="690" height="450" as="geometry" />
          </mxCell>
        </object>
        <object placeholders="1" c4Name="Kupac" c4Type="Person" c4Description="Osoba koja koristi usluge operatera" label="&lt;font style=&quot;font-size: 16px&quot;&gt;&lt;b&gt;%c4Name%&lt;/b&gt;&lt;/font&gt;&lt;div&gt;[%c4Type%]&lt;/div&gt;&lt;br&gt;&lt;div&gt;&lt;font style=&quot;font-size: 11px&quot;&gt;&lt;font color=&quot;#cccccc&quot;&gt;%c4Description%&lt;/font&gt;&lt;/div&gt;" id="-Dfa5dCI5ny1sUVRKkH5-1">
          <mxCell style="html=1;fontSize=11;dashed=0;whiteSpace=wrap;fillColor=#083F75;strokeColor=#06315C;fontColor=#ffffff;shape=mxgraph.c4.person2;align=center;metaEdit=1;points=[[0.5,0,0],[1,0.5,0],[1,0.75,0],[0.75,1,0],[0.5,1,0],[0.25,1,0],[0,0.75,0],[0,0.5,0]];resizable=0;" vertex="1" parent="1">
            <mxGeometry x="-710" y="-130" width="200" height="180" as="geometry" />
          </mxCell>
        </object>
        <mxCell id="ervIR7irUqciZhTlSeTI-7" style="edgeStyle=orthogonalEdgeStyle;rounded=0;orthogonalLoop=1;jettySize=auto;html=1;exitX=1;exitY=0.5;exitDx=0;exitDy=0;exitPerimeter=0;" edge="1" parent="1" source="-Dfa5dCI5ny1sUVRKkH5-2">
          <mxGeometry relative="1" as="geometry">
            <mxPoint x="160" y="209.84210526315792" as="targetPoint" />
          </mxGeometry>
        </mxCell>
        <mxCell id="ervIR7irUqciZhTlSeTI-8" value="&lt;div&gt;Pri početku plaćanja, redirektuje korisnikov&amp;nbsp;&lt;/div&gt;&lt;div&gt;browser na &lt;b&gt;psp.local&lt;/b&gt; pri čemu&amp;nbsp;&lt;/div&gt;&lt;div&gt;je &lt;b&gt;ORDER_ID &lt;/b&gt;query parametar&lt;br&gt;&lt;/div&gt;" style="edgeLabel;html=1;align=center;verticalAlign=middle;resizable=0;points=[];" connectable="0" vertex="1" parent="ervIR7irUqciZhTlSeTI-7">
          <mxGeometry x="-0.2913" y="1" relative="1" as="geometry">
            <mxPoint x="37" y="1" as="offset" />
          </mxGeometry>
        </mxCell>
        <object placeholders="1" c4Name="Frontend Aplikacija" c4Type="Container" c4Technology="VueJS" c4Description="Pruža sve funkcionalnosti web &#xa;prodavnice kupcu kroz web browser" label="&lt;font style=&quot;font-size: 16px&quot;&gt;&lt;b&gt;%c4Name%&lt;/b&gt;&lt;/font&gt;&lt;div&gt;[%c4Type%:&amp;nbsp;%c4Technology%]&lt;/div&gt;&lt;br&gt;&lt;div&gt;&lt;font style=&quot;font-size: 11px&quot;&gt;&lt;font color=&quot;#E6E6E6&quot;&gt;%c4Description%&lt;/font&gt;&lt;/div&gt;" id="-Dfa5dCI5ny1sUVRKkH5-2">
          <mxCell style="shape=mxgraph.c4.webBrowserContainer2;whiteSpace=wrap;html=1;boundedLbl=1;rounded=0;labelBackgroundColor=none;strokeColor=#118ACD;fillColor=#23A2D9;strokeColor=#118ACD;strokeColor2=#0E7DAD;fontSize=12;fontColor=#ffffff;align=center;metaEdit=1;points=[[0.5,0,0],[1,0.25,0],[1,0.5,0],[1,0.75,0],[0.5,1,0],[0,0.75,0],[0,0.5,0],[0,0.25,0]];resizable=0;" vertex="1" parent="1">
            <mxGeometry x="-340" y="130" width="240" height="160" as="geometry" />
          </mxCell>
        </object>
        <mxCell id="ervIR7irUqciZhTlSeTI-5" style="edgeStyle=orthogonalEdgeStyle;rounded=0;orthogonalLoop=1;jettySize=auto;html=1;exitX=1;exitY=0.5;exitDx=0;exitDy=0;exitPerimeter=0;entryX=0;entryY=0.5;entryDx=0;entryDy=0;entryPerimeter=0;" edge="1" parent="1" source="-Dfa5dCI5ny1sUVRKkH5-3" target="ervIR7irUqciZhTlSeTI-4">
          <mxGeometry relative="1" as="geometry">
            <mxPoint x="30" y="420" as="targetPoint" />
          </mxGeometry>
        </mxCell>
        <mxCell id="ervIR7irUqciZhTlSeTI-6" value="&lt;div&gt;Započinje proces plaćanja slanjem&lt;/div&gt;&lt;div&gt;MERCHANT_ID&lt;/div&gt;&lt;div&gt;MERCHANT_PASSWORD&lt;/div&gt;&lt;div&gt;AMOUNT&lt;/div&gt;&lt;div&gt;MERCHANT_ORDER_ID&lt;/div&gt;&lt;div&gt;MERCHANT_TIMESTAMP&lt;/div&gt;&lt;div&gt;SUCCESS, FAIL, ERROR URLS&lt;/div&gt;&lt;div&gt;&lt;br&gt;&lt;/div&gt;&lt;div&gt;&lt;br&gt;&lt;/div&gt;&lt;div&gt;&lt;br&gt;&lt;/div&gt;&lt;div&gt;U odgovoru dobija &lt;b&gt;PAYMENT_URL&lt;/b&gt; i &lt;b&gt;PAYMENT_ID&lt;/b&gt;&lt;br&gt;&lt;/div&gt;&lt;div&gt;&lt;br&gt;&lt;/div&gt;" style="edgeLabel;html=1;align=center;verticalAlign=middle;resizable=0;points=[];" connectable="0" vertex="1" parent="ervIR7irUqciZhTlSeTI-5">
          <mxGeometry x="-0.0192" relative="1" as="geometry">
            <mxPoint x="1588" y="-18" as="offset" />
          </mxGeometry>
        </mxCell>
        <object placeholders="1" c4Name="REST API Aplikacija" c4Type="Container" c4Technology="FastAPI" c4Description="Registracija i prijava korisnika, izlistavanje usluga i detalja, izlistavanje usluga na koje je korisnik pretplaćen, pretplaćivanje na usluge" label="&lt;font style=&quot;font-size: 16px&quot;&gt;&lt;b&gt;%c4Name%&lt;/b&gt;&lt;/font&gt;&lt;div&gt;[%c4Type%: %c4Technology%]&lt;/div&gt;&lt;br&gt;&lt;div&gt;&lt;font style=&quot;font-size: 11px&quot;&gt;&lt;font color=&quot;#E6E6E6&quot;&gt;%c4Description%&lt;/font&gt;&lt;/div&gt;" id="-Dfa5dCI5ny1sUVRKkH5-3">
          <mxCell style="rounded=1;whiteSpace=wrap;html=1;fontSize=11;labelBackgroundColor=none;fillColor=#23A2D9;fontColor=#ffffff;align=center;arcSize=10;strokeColor=#0E7DAD;metaEdit=1;resizable=0;points=[[0.25,0,0],[0.5,0,0],[0.75,0,0],[1,0.25,0],[1,0.5,0],[1,0.75,0],[0.75,1,0],[0.5,1,0],[0.25,1,0],[0,0.75,0],[0,0.5,0],[0,0.25,0]];" vertex="1" parent="1">
            <mxGeometry x="-340" y="360" width="240" height="120" as="geometry" />
          </mxCell>
        </object>
        <object placeholders="1" c4Name="Baza podataka" c4Type="Container" c4Technology="e.g. Postgresql" c4Description="Sadrži korisnike, usluge u ponudi sa detaljima, pretplate korisnika na usluge (period, produženje)" label="&lt;font style=&quot;font-size: 16px&quot;&gt;&lt;b&gt;%c4Name%&lt;/b&gt;&lt;/font&gt;&lt;div&gt;[%c4Type%:&amp;nbsp;%c4Technology%]&lt;/div&gt;&lt;br&gt;&lt;div&gt;&lt;font style=&quot;font-size: 11px&quot;&gt;&lt;font color=&quot;#E6E6E6&quot;&gt;%c4Description%&lt;/font&gt;&lt;/div&gt;" id="-Dfa5dCI5ny1sUVRKkH5-4">
          <mxCell style="shape=cylinder3;size=15;whiteSpace=wrap;html=1;boundedLbl=1;rounded=0;labelBackgroundColor=none;fillColor=#23A2D9;fontSize=12;fontColor=#ffffff;align=center;strokeColor=#0E7DAD;metaEdit=1;points=[[0.5,0,0],[1,0.25,0],[1,0.5,0],[1,0.75,0],[0.5,1,0],[0,0.75,0],[0,0.5,0],[0,0.25,0]];resizable=0;" vertex="1" parent="1">
            <mxGeometry x="-740" y="360" width="240" height="120" as="geometry" />
          </mxCell>
        </object>
        <mxCell id="-Dfa5dCI5ny1sUVRKkH5-7" style="edgeStyle=orthogonalEdgeStyle;rounded=0;orthogonalLoop=1;jettySize=auto;html=1;entryX=1;entryY=0.5;entryDx=0;entryDy=0;entryPerimeter=0;" edge="1" parent="1" target="-Dfa5dCI5ny1sUVRKkH5-4">
          <mxGeometry relative="1" as="geometry">
            <mxPoint x="-340" y="420" as="sourcePoint" />
          </mxGeometry>
        </mxCell>
        <mxCell id="-Dfa5dCI5ny1sUVRKkH5-8" value="Čita iz / upisuje u" style="edgeLabel;html=1;align=center;verticalAlign=middle;resizable=0;points=[];" connectable="0" vertex="1" parent="-Dfa5dCI5ny1sUVRKkH5-7">
          <mxGeometry x="-0.2784" y="-1" relative="1" as="geometry">
            <mxPoint x="-22" as="offset" />
          </mxGeometry>
        </mxCell>
        <mxCell id="-Dfa5dCI5ny1sUVRKkH5-11" style="edgeStyle=orthogonalEdgeStyle;rounded=0;orthogonalLoop=1;jettySize=auto;html=1;exitX=0.5;exitY=1;exitDx=0;exitDy=0;exitPerimeter=0;entryX=0.5;entryY=0;entryDx=0;entryDy=0;entryPerimeter=0;" edge="1" parent="1" source="-Dfa5dCI5ny1sUVRKkH5-2" target="-Dfa5dCI5ny1sUVRKkH5-3">
          <mxGeometry relative="1" as="geometry" />
        </mxCell>
        <mxCell id="-Dfa5dCI5ny1sUVRKkH5-12" value="&lt;div&gt;Pravi API pozive ka&lt;/div&gt;" style="edgeLabel;html=1;align=center;verticalAlign=middle;resizable=0;points=[];" connectable="0" vertex="1" parent="-Dfa5dCI5ny1sUVRKkH5-11">
          <mxGeometry x="-0.1624" y="-4" relative="1" as="geometry">
            <mxPoint as="offset" />
          </mxGeometry>
        </mxCell>
        <mxCell id="-Dfa5dCI5ny1sUVRKkH5-18" style="edgeStyle=orthogonalEdgeStyle;rounded=0;orthogonalLoop=1;jettySize=auto;html=1;exitX=1;exitY=0.5;exitDx=0;exitDy=0;exitPerimeter=0;" edge="1" parent="1" source="-Dfa5dCI5ny1sUVRKkH5-13">
          <mxGeometry relative="1" as="geometry">
            <mxPoint x="-340" y="220.36842105263167" as="targetPoint" />
          </mxGeometry>
        </mxCell>
        <mxCell id="-Dfa5dCI5ny1sUVRKkH5-19" value="&lt;div&gt;Statički servira frontend&lt;/div&gt;&lt;div&gt;aplikaciju kupčevom&lt;/div&gt;&lt;div&gt;browseru&lt;br&gt;&lt;/div&gt;" style="edgeLabel;html=1;align=center;verticalAlign=middle;resizable=0;points=[];" connectable="0" vertex="1" parent="-Dfa5dCI5ny1sUVRKkH5-18">
          <mxGeometry x="0.1009" y="-3" relative="1" as="geometry">
            <mxPoint x="-12" y="-4" as="offset" />
          </mxGeometry>
        </mxCell>
        <object placeholders="1" c4Name="Web Server" c4Type="Container" c4Technology="e.g. Nginx" c4Description="Statički servira frontend aplikaciju korisniku" label="&lt;font style=&quot;font-size: 16px&quot;&gt;&lt;b&gt;%c4Name%&lt;/b&gt;&lt;/font&gt;&lt;div&gt;[%c4Type%: %c4Technology%]&lt;/div&gt;&lt;br&gt;&lt;div&gt;&lt;font style=&quot;font-size: 11px&quot;&gt;&lt;font color=&quot;#E6E6E6&quot;&gt;%c4Description%&lt;/font&gt;&lt;/div&gt;" id="-Dfa5dCI5ny1sUVRKkH5-13">
          <mxCell style="rounded=1;whiteSpace=wrap;html=1;fontSize=11;labelBackgroundColor=none;fillColor=#23A2D9;fontColor=#ffffff;align=center;arcSize=10;strokeColor=#0E7DAD;metaEdit=1;resizable=0;points=[[0.25,0,0],[0.5,0,0],[0.75,0,0],[1,0.25,0],[1,0.5,0],[1,0.75,0],[0.75,1,0],[0.5,1,0],[0.25,1,0],[0,0.75,0],[0,0.5,0],[0,0.25,0]];" vertex="1" parent="1">
            <mxGeometry x="-730" y="160" width="240" height="120" as="geometry" />
          </mxCell>
        </object>
        <mxCell id="-Dfa5dCI5ny1sUVRKkH5-14" style="edgeStyle=orthogonalEdgeStyle;rounded=0;orthogonalLoop=1;jettySize=auto;html=1;exitX=1;exitY=0.75;exitDx=0;exitDy=0;exitPerimeter=0;entryX=0.5;entryY=0;entryDx=0;entryDy=0;entryPerimeter=0;" edge="1" parent="1" source="-Dfa5dCI5ny1sUVRKkH5-1" target="-Dfa5dCI5ny1sUVRKkH5-2">
          <mxGeometry relative="1" as="geometry" />
        </mxCell>
        <mxCell id="-Dfa5dCI5ny1sUVRKkH5-15" value="&lt;div&gt;Registruje se, prijavljuje se, pregleda usluge,&amp;nbsp;&lt;/div&gt;&lt;div&gt;pretplaćuje sa na usluge&lt;/div&gt;" style="edgeLabel;html=1;align=center;verticalAlign=middle;resizable=0;points=[];" connectable="0" vertex="1" parent="-Dfa5dCI5ny1sUVRKkH5-14">
          <mxGeometry x="-0.1332" y="-4" relative="1" as="geometry">
            <mxPoint x="-26" as="offset" />
          </mxGeometry>
        </mxCell>
        <mxCell id="-Dfa5dCI5ny1sUVRKkH5-16" style="edgeStyle=orthogonalEdgeStyle;rounded=0;orthogonalLoop=1;jettySize=auto;html=1;exitX=0.5;exitY=1;exitDx=0;exitDy=0;exitPerimeter=0;entryX=0.5;entryY=0;entryDx=0;entryDy=0;entryPerimeter=0;" edge="1" parent="1" source="-Dfa5dCI5ny1sUVRKkH5-1" target="-Dfa5dCI5ny1sUVRKkH5-13">
          <mxGeometry relative="1" as="geometry" />
        </mxCell>
        <mxCell id="-Dfa5dCI5ny1sUVRKkH5-17" value="Posećuje &lt;b&gt;prodavnica.local&lt;/b&gt;" style="edgeLabel;html=1;align=center;verticalAlign=middle;resizable=0;points=[];" connectable="0" vertex="1" parent="-Dfa5dCI5ny1sUVRKkH5-16">
          <mxGeometry x="-0.2756" y="3" relative="1" as="geometry">
            <mxPoint as="offset" />
          </mxGeometry>
        </mxCell>
        <object placeholders="1" c4Name="Web Server" c4Type="Container" c4Technology="e.g. Nginx" c4Description="Statički servira frontend aplikaciju korisniku" label="&lt;font style=&quot;font-size: 16px&quot;&gt;&lt;b&gt;%c4Name%&lt;/b&gt;&lt;/font&gt;&lt;div&gt;[%c4Type%: %c4Technology%]&lt;/div&gt;&lt;br&gt;&lt;div&gt;&lt;font style=&quot;font-size: 11px&quot;&gt;&lt;font color=&quot;#E6E6E6&quot;&gt;%c4Description%&lt;/font&gt;&lt;/div&gt;" id="iqNdqKKUcrkHKuxMiaks-1">
          <mxCell style="rounded=1;whiteSpace=wrap;html=1;fontSize=11;labelBackgroundColor=none;fillColor=#23A2D9;fontColor=#ffffff;align=center;arcSize=10;strokeColor=#0E7DAD;metaEdit=1;resizable=0;points=[[0.25,0,0],[0.5,0,0],[0.75,0,0],[1,0.25,0],[1,0.5,0],[1,0.75,0],[0.75,1,0],[0.5,1,0],[0.25,1,0],[0,0.75,0],[0,0.5,0],[0,0.25,0]];" vertex="1" parent="1">
            <mxGeometry x="160" y="160" width="240" height="120" as="geometry" />
          </mxCell>
        </object>
        <object placeholders="1" c4Name="Frontend Aplikacija" c4Type="Container" c4Technology="VueJS" c4Description="Prikazuje korisniku podržane načine&#xa;plaćanja za datu prodavnicu, kao i detalje o kupovini (prodavnica, predmet prodaje i cena)" label="&lt;font style=&quot;font-size: 16px&quot;&gt;&lt;b&gt;%c4Name%&lt;/b&gt;&lt;/font&gt;&lt;div&gt;[%c4Type%:&amp;nbsp;%c4Technology%]&lt;/div&gt;&lt;br&gt;&lt;div&gt;&lt;font style=&quot;font-size: 11px&quot;&gt;&lt;font color=&quot;#E6E6E6&quot;&gt;%c4Description%&lt;/font&gt;&lt;/div&gt;" id="iqNdqKKUcrkHKuxMiaks-5">
          <mxCell style="shape=mxgraph.c4.webBrowserContainer2;whiteSpace=wrap;html=1;boundedLbl=1;rounded=0;labelBackgroundColor=none;strokeColor=#118ACD;fillColor=#23A2D9;strokeColor=#118ACD;strokeColor2=#0E7DAD;fontSize=12;fontColor=#ffffff;align=center;metaEdit=1;points=[[0.5,0,0],[1,0.25,0],[1,0.5,0],[1,0.75,0],[0.5,1,0],[0,0.75,0],[0,0.5,0],[0,0.25,0]];resizable=0;" vertex="1" parent="1">
            <mxGeometry x="700" y="130" width="240" height="160" as="geometry" />
          </mxCell>
        </object>
        <mxCell id="iqNdqKKUcrkHKuxMiaks-6" style="edgeStyle=orthogonalEdgeStyle;rounded=0;orthogonalLoop=1;jettySize=auto;html=1;exitX=1;exitY=0.5;exitDx=0;exitDy=0;exitPerimeter=0;" edge="1" parent="1">
          <mxGeometry relative="1" as="geometry">
            <mxPoint x="700" y="220" as="targetPoint" />
            <mxPoint x="400" y="220" as="sourcePoint" />
          </mxGeometry>
        </mxCell>
        <mxCell id="iqNdqKKUcrkHKuxMiaks-7" value="&lt;div&gt;Statički servira frontend&lt;/div&gt;&lt;div&gt;aplikaciju kupčevom&lt;/div&gt;&lt;div&gt;browseru&lt;br&gt;&lt;/div&gt;" style="edgeLabel;html=1;align=center;verticalAlign=middle;resizable=0;points=[];" connectable="0" vertex="1" parent="iqNdqKKUcrkHKuxMiaks-6">
          <mxGeometry x="0.1009" y="-3" relative="1" as="geometry">
            <mxPoint x="-12" y="-4" as="offset" />
          </mxGeometry>
        </mxCell>
        <mxCell id="YayIe8A1mY_EZbu5fioP-2" style="edgeStyle=orthogonalEdgeStyle;rounded=0;orthogonalLoop=1;jettySize=auto;html=1;exitX=0.5;exitY=1;exitDx=0;exitDy=0;exitPerimeter=0;" edge="1" parent="1" source="qZ7AquHbZ34GRcM63JPv-1" target="LQsaFghDRL0EP-A3VGFa-7">
          <mxGeometry relative="1" as="geometry" />
        </mxCell>
        <mxCell id="YayIe8A1mY_EZbu5fioP-3" value="Čita iz / upisuje u" style="edgeLabel;html=1;align=center;verticalAlign=middle;resizable=0;points=[];" connectable="0" vertex="1" parent="YayIe8A1mY_EZbu5fioP-2">
          <mxGeometry x="0.273" relative="1" as="geometry">
            <mxPoint as="offset" />
          </mxGeometry>
        </mxCell>
        <object placeholders="1" c4Name="REST API Aplikacija za Kupce" c4Type="Container" c4Technology="FastAPI" c4Description="Na osnovu datog ORDER_ID nudi mogućnosti plaćanja. Prosleđuje kupčev zahtev za plaćanjem odgovarajućem hendleru za plaćanje." label="&lt;font style=&quot;font-size: 16px&quot;&gt;&lt;b&gt;%c4Name%&lt;/b&gt;&lt;/font&gt;&lt;div&gt;[%c4Type%: %c4Technology%]&lt;/div&gt;&lt;br&gt;&lt;div&gt;&lt;font style=&quot;font-size: 11px&quot;&gt;&lt;font color=&quot;#E6E6E6&quot;&gt;%c4Description%&lt;/font&gt;&lt;/div&gt;" id="qZ7AquHbZ34GRcM63JPv-1">
          <mxCell style="rounded=1;whiteSpace=wrap;html=1;fontSize=11;labelBackgroundColor=none;fillColor=#23A2D9;fontColor=#ffffff;align=center;arcSize=10;strokeColor=#0E7DAD;metaEdit=1;resizable=0;points=[[0.25,0,0],[0.5,0,0],[0.75,0,0],[1,0.25,0],[1,0.5,0],[1,0.75,0],[0.75,1,0],[0.5,1,0],[0.25,1,0],[0,0.75,0],[0,0.5,0],[0,0.25,0]];" vertex="1" parent="1">
            <mxGeometry x="700" y="360" width="240" height="120" as="geometry" />
          </mxCell>
        </object>
        <object placeholders="1" c4Name="Super Admin" c4Type="Person" c4Description="Administrator PSP" label="&lt;font style=&quot;font-size: 16px&quot;&gt;&lt;b&gt;%c4Name%&lt;/b&gt;&lt;/font&gt;&lt;div&gt;[%c4Type%]&lt;/div&gt;&lt;br&gt;&lt;div&gt;&lt;font style=&quot;font-size: 11px&quot;&gt;&lt;font color=&quot;#cccccc&quot;&gt;%c4Description%&lt;/font&gt;&lt;/div&gt;" id="LQsaFghDRL0EP-A3VGFa-1">
          <mxCell style="html=1;fontSize=11;dashed=0;whiteSpace=wrap;fillColor=#083F75;strokeColor=#06315C;fontColor=#ffffff;shape=mxgraph.c4.person2;align=center;metaEdit=1;points=[[0.5,0,0],[1,0.5,0],[1,0.75,0],[0.75,1,0],[0.5,1,0],[0.25,1,0],[0,0.75,0],[0,0.5,0]];resizable=0;" vertex="1" parent="1">
            <mxGeometry x="720" y="1050" width="200" height="180" as="geometry" />
          </mxCell>
        </object>
        <mxCell id="jj2AK_LUxVg-6keSor2m-3" style="edgeStyle=orthogonalEdgeStyle;rounded=0;orthogonalLoop=1;jettySize=auto;html=1;" edge="1" parent="1" source="LQsaFghDRL0EP-A3VGFa-2" target="LQsaFghDRL0EP-A3VGFa-7">
          <mxGeometry relative="1" as="geometry" />
        </mxCell>
        <object placeholders="1" c4Name="Management Skripta" c4Type="Container" c4Technology="e.g. Python, Bash" c4Description="CLI alat za dodavanje i uklanjanje metoda plaćanja (umesto web back-office aplikacije)" label="&lt;font style=&quot;font-size: 16px&quot;&gt;&lt;b&gt;%c4Name%&lt;/b&gt;&lt;/font&gt;&lt;div&gt;[%c4Type%: %c4Technology%]&lt;/div&gt;&lt;br&gt;&lt;div&gt;&lt;font style=&quot;font-size: 11px&quot;&gt;&lt;font color=&quot;#E6E6E6&quot;&gt;%c4Description%&lt;/font&gt;&lt;/div&gt;" id="LQsaFghDRL0EP-A3VGFa-2">
          <mxCell style="rounded=1;whiteSpace=wrap;html=1;fontSize=11;labelBackgroundColor=none;fillColor=#23A2D9;fontColor=#ffffff;align=center;arcSize=10;strokeColor=#0E7DAD;metaEdit=1;resizable=0;points=[[0.25,0,0],[0.5,0,0],[0.75,0,0],[1,0.25,0],[1,0.5,0],[1,0.75,0],[0.75,1,0],[0.5,1,0],[0.25,1,0],[0,0.75,0],[0,0.5,0],[0,0.25,0]];" vertex="1" parent="1">
            <mxGeometry x="700" y="560" width="240" height="120" as="geometry" />
          </mxCell>
        </object>
        <mxCell id="LQsaFghDRL0EP-A3VGFa-5" style="edgeStyle=orthogonalEdgeStyle;rounded=0;orthogonalLoop=1;jettySize=auto;html=1;exitX=0.5;exitY=0;exitDx=0;exitDy=0;exitPerimeter=0;entryX=0.5;entryY=1;entryDx=0;entryDy=0;entryPerimeter=0;" edge="1" parent="1" source="LQsaFghDRL0EP-A3VGFa-1" target="LQsaFghDRL0EP-A3VGFa-2">
          <mxGeometry relative="1" as="geometry">
            <mxPoint x="670.0000000000005" y="780" as="sourcePoint" />
          </mxGeometry>
        </mxCell>
        <mxCell id="LQsaFghDRL0EP-A3VGFa-6" value="Izvršava komande" style="edgeLabel;html=1;align=center;verticalAlign=middle;resizable=0;points=[];" connectable="0" vertex="1" parent="LQsaFghDRL0EP-A3VGFa-5">
          <mxGeometry x="0.3522" y="-4" relative="1" as="geometry">
            <mxPoint x="-4" y="15" as="offset" />
          </mxGeometry>
        </mxCell>
        <object placeholders="1" c4Name="Baza podataka" c4Type="Container" c4Technology="e.g. Postgresql" c4Description="Svi mogući načini plaćanja, merchants (api_key, success/fail/error urls), transakcije, veze merchanta i načina plaćanja" label="&lt;font style=&quot;font-size: 16px&quot;&gt;&lt;b&gt;%c4Name%&lt;/b&gt;&lt;/font&gt;&lt;div&gt;[%c4Type%:&amp;nbsp;%c4Technology%]&lt;/div&gt;&lt;br&gt;&lt;div&gt;&lt;font style=&quot;font-size: 11px&quot;&gt;&lt;font color=&quot;#E6E6E6&quot;&gt;%c4Description%&lt;/font&gt;&lt;/div&gt;" id="LQsaFghDRL0EP-A3VGFa-7">
          <mxCell style="shape=cylinder3;size=15;whiteSpace=wrap;html=1;boundedLbl=1;rounded=0;labelBackgroundColor=none;fillColor=#23A2D9;fontSize=12;fontColor=#ffffff;align=center;strokeColor=#0E7DAD;metaEdit=1;points=[[0.5,0,0],[1,0.25,0],[1,0.5,0],[1,0.75,0],[0.5,1,0],[0,0.75,0],[0,0.5,0],[0,0.25,0]];resizable=0;" vertex="1" parent="1">
            <mxGeometry x="410" y="560" width="240" height="120" as="geometry" />
          </mxCell>
        </object>
        <object placeholders="1" c4Name="Vlasnik prodavnice" c4Type="Person" c4Description="Konfiguriše i upravlja svojom aplikacijom unutar PSP, ima nalog u banci" label="&lt;font style=&quot;font-size: 16px&quot;&gt;&lt;b&gt;%c4Name%&lt;/b&gt;&lt;/font&gt;&lt;div&gt;[%c4Type%]&lt;/div&gt;&lt;br&gt;&lt;div&gt;&lt;font style=&quot;font-size: 11px&quot;&gt;&lt;font color=&quot;#cccccc&quot;&gt;%c4Description%&lt;/font&gt;&lt;/div&gt;" id="W_cVftkf6k1-Y2_iZ0u_-1">
          <mxCell style="html=1;fontSize=11;dashed=0;whiteSpace=wrap;fillColor=#083F75;strokeColor=#06315C;fontColor=#ffffff;shape=mxgraph.c4.person2;align=center;metaEdit=1;points=[[0.5,0,0],[1,0.5,0],[1,0.75,0],[0.75,1,0],[0.5,1,0],[0.25,1,0],[0,0.75,0],[0,0.5,0]];resizable=0;" vertex="1" parent="1">
            <mxGeometry x="430" y="1050" width="200" height="180" as="geometry" />
          </mxCell>
        </object>
        <object placeholders="1" c4Name="Banka Prodavca" c4Type="SystemScopeBoundary" c4Application="Software System" label="&lt;font style=&quot;font-size: 16px&quot;&gt;&lt;b&gt;&lt;div style=&quot;text-align: left&quot;&gt;%c4Name%&lt;/div&gt;&lt;/b&gt;&lt;/font&gt;&lt;div style=&quot;text-align: left&quot;&gt;[%c4Application%]&lt;/div&gt;" id="KdJiGA264Oi-P08SUT4w-1">
          <mxCell style="rounded=1;fontSize=11;whiteSpace=wrap;html=1;dashed=1;arcSize=20;fillColor=none;strokeColor=#666666;fontColor=#333333;labelBackgroundColor=none;align=left;verticalAlign=bottom;labelBorderColor=none;spacingTop=0;spacing=10;dashPattern=8 4;metaEdit=1;rotatable=0;perimeter=rectanglePerimeter;noLabel=0;labelPadding=0;allowArrows=0;connectable=0;expand=0;recursiveResize=0;editable=1;pointerEvents=0;absoluteArcSize=1;points=[[0.25,0,0],[0.5,0,0],[0.75,0,0],[1,0.25,0],[1,0.5,0],[1,0.75,0],[0.75,1,0],[0.5,1,0],[0.25,1,0],[0,0.75,0],[0,0.5,0],[0,0.25,0]];" vertex="1" parent="1">
            <mxGeometry x="1860" y="110" width="830" height="640" as="geometry" />
          </mxCell>
        </object>
        <mxCell id="ervIR7irUqciZhTlSeTI-2" style="edgeStyle=orthogonalEdgeStyle;rounded=0;orthogonalLoop=1;jettySize=auto;html=1;exitX=0.5;exitY=1;exitDx=0;exitDy=0;exitPerimeter=0;entryX=0.5;entryY=0;entryDx=0;entryDy=0;entryPerimeter=0;" edge="1" parent="1" source="iqNdqKKUcrkHKuxMiaks-5" target="qZ7AquHbZ34GRcM63JPv-1">
          <mxGeometry relative="1" as="geometry" />
        </mxCell>
        <mxCell id="ervIR7irUqciZhTlSeTI-3" value="&lt;div&gt;Pravi API poziv&lt;/div&gt;&lt;div&gt;Prosleđuje ORDER_ID i odabran metod plaćanja&lt;br&gt;&lt;/div&gt;" style="edgeLabel;html=1;align=center;verticalAlign=middle;resizable=0;points=[];" connectable="0" vertex="1" parent="1">
          <mxGeometry x="820" y="320" as="geometry">
            <mxPoint x="-1" y="-2" as="offset" />
          </mxGeometry>
        </mxCell>
        <object placeholders="1" c4Name="REST API Aplikacija&#xa;(backend-to-backend)" c4Type="Container" c4Technology="FastAPI" c4Description="Na zahtev klijenta, kreira transakciju i vraća ID iste." label="&lt;font style=&quot;font-size: 16px&quot;&gt;&lt;b&gt;%c4Name%&lt;/b&gt;&lt;/font&gt;&lt;div&gt;[%c4Type%: %c4Technology%]&lt;/div&gt;&lt;br&gt;&lt;div&gt;&lt;font style=&quot;font-size: 11px&quot;&gt;&lt;font color=&quot;#E6E6E6&quot;&gt;%c4Description%&lt;/font&gt;&lt;/div&gt;" id="ervIR7irUqciZhTlSeTI-4">
          <mxCell style="rounded=1;whiteSpace=wrap;html=1;fontSize=11;labelBackgroundColor=none;fillColor=#23A2D9;fontColor=#ffffff;align=center;arcSize=10;strokeColor=#0E7DAD;metaEdit=1;resizable=0;points=[[0.25,0,0],[0.5,0,0],[0.75,0,0],[1,0.25,0],[1,0.5,0],[1,0.75,0],[0.75,1,0],[0.5,1,0],[0.25,1,0],[0,0.75,0],[0,0.5,0],[0,0.25,0]];" vertex="1" parent="1">
            <mxGeometry x="160" y="360" width="240" height="120" as="geometry" />
          </mxCell>
        </object>
        <mxCell id="jj2AK_LUxVg-6keSor2m-1" style="edgeStyle=orthogonalEdgeStyle;rounded=0;orthogonalLoop=1;jettySize=auto;html=1;exitX=0.5;exitY=1;exitDx=0;exitDy=0;exitPerimeter=0;entryX=0;entryY=0.5;entryDx=0;entryDy=0;entryPerimeter=0;" edge="1" parent="1" source="ervIR7irUqciZhTlSeTI-4" target="LQsaFghDRL0EP-A3VGFa-7">
          <mxGeometry relative="1" as="geometry" />
        </mxCell>
        <mxCell id="jj2AK_LUxVg-6keSor2m-2" value="Upisuje započetu transakciju prodavca u bazu" style="edgeLabel;html=1;align=center;verticalAlign=middle;resizable=0;points=[];" connectable="0" vertex="1" parent="jj2AK_LUxVg-6keSor2m-1">
          <mxGeometry x="-0.6075" y="4" relative="1" as="geometry">
            <mxPoint as="offset" />
          </mxGeometry>
        </mxCell>
        <mxCell id="0hhu_PJgDvUbuQyEGKLK-6" style="edgeStyle=orthogonalEdgeStyle;rounded=0;orthogonalLoop=1;jettySize=auto;html=1;exitX=0;exitY=0.75;exitDx=0;exitDy=0;exitPerimeter=0;" edge="1" parent="1" source="YayIe8A1mY_EZbu5fioP-6">
          <mxGeometry relative="1" as="geometry">
            <mxPoint x="1410" y="450" as="targetPoint" />
          </mxGeometry>
        </mxCell>
        <object placeholders="1" c4Name="REST API Aplikacija&#xa;(Handler za plaćanje)" c4Type="Container" c4Technology="FastAPI" c4Description="" label="&lt;font style=&quot;font-size: 16px&quot;&gt;&lt;b&gt;%c4Name%&lt;/b&gt;&lt;/font&gt;&lt;div&gt;[%c4Type%: %c4Technology%]&lt;/div&gt;&lt;br&gt;&lt;div&gt;&lt;font style=&quot;font-size: 11px&quot;&gt;&lt;font color=&quot;#E6E6E6&quot;&gt;%c4Description%&lt;/font&gt;&lt;/div&gt;" id="YayIe8A1mY_EZbu5fioP-6">
          <mxCell style="rounded=1;whiteSpace=wrap;html=1;fontSize=11;labelBackgroundColor=none;fillColor=#23A2D9;fontColor=#ffffff;align=center;arcSize=10;strokeColor=#0E7DAD;metaEdit=1;resizable=0;points=[[0.25,0,0],[0.5,0,0],[0.75,0,0],[1,0.25,0],[1,0.5,0],[1,0.75,0],[0.75,1,0],[0.5,1,0],[0.25,1,0],[0,0.75,0],[0,0.5,0],[0,0.25,0]];" vertex="1" parent="1">
            <mxGeometry x="1885" y="360" width="240" height="120" as="geometry" />
          </mxCell>
        </object>
        <object placeholders="1" c4Name="Web Server" c4Type="Container" c4Technology="e.g. Nginx" c4Description="Statički servira frontend aplikaciju korisniku" label="&lt;font style=&quot;font-size: 16px&quot;&gt;&lt;b&gt;%c4Name%&lt;/b&gt;&lt;/font&gt;&lt;div&gt;[%c4Type%: %c4Technology%]&lt;/div&gt;&lt;br&gt;&lt;div&gt;&lt;font style=&quot;font-size: 11px&quot;&gt;&lt;font color=&quot;#E6E6E6&quot;&gt;%c4Description%&lt;/font&gt;&lt;/div&gt;" id="YayIe8A1mY_EZbu5fioP-7">
          <mxCell style="rounded=1;whiteSpace=wrap;html=1;fontSize=11;labelBackgroundColor=none;fillColor=#23A2D9;fontColor=#ffffff;align=center;arcSize=10;strokeColor=#0E7DAD;metaEdit=1;resizable=0;points=[[0.25,0,0],[0.5,0,0],[0.75,0,0],[1,0.25,0],[1,0.5,0],[1,0.75,0],[0.75,1,0],[0.5,1,0],[0.25,1,0],[0,0.75,0],[0,0.5,0],[0,0.25,0]];" vertex="1" parent="1">
            <mxGeometry x="1890" y="160" width="240" height="120" as="geometry" />
          </mxCell>
        </object>
        <mxCell id="ISreFUNMZtMqdLEje3Ol-11" style="edgeStyle=orthogonalEdgeStyle;rounded=0;orthogonalLoop=1;jettySize=auto;html=1;exitX=0.5;exitY=1;exitDx=0;exitDy=0;exitPerimeter=0;" edge="1" parent="1" source="YayIe8A1mY_EZbu5fioP-8">
          <mxGeometry relative="1" as="geometry">
            <mxPoint x="2549.823529411765" y="360" as="targetPoint" />
          </mxGeometry>
        </mxCell>
        <object placeholders="1" c4Name="Frontend Aplikacija" c4Type="Container" c4Technology="VueJS" c4Description="Forma za unos PAN, SECURITY_CODE, CARD_HOLDER_NAME, datum važenja kartice" label="&lt;font style=&quot;font-size: 16px&quot;&gt;&lt;b&gt;%c4Name%&lt;/b&gt;&lt;/font&gt;&lt;div&gt;[%c4Type%:&amp;nbsp;%c4Technology%]&lt;/div&gt;&lt;br&gt;&lt;div&gt;&lt;font style=&quot;font-size: 11px&quot;&gt;&lt;font color=&quot;#E6E6E6&quot;&gt;%c4Description%&lt;/font&gt;&lt;/div&gt;" id="YayIe8A1mY_EZbu5fioP-8">
          <mxCell style="shape=mxgraph.c4.webBrowserContainer2;whiteSpace=wrap;html=1;boundedLbl=1;rounded=0;labelBackgroundColor=none;strokeColor=#118ACD;fillColor=#23A2D9;strokeColor=#118ACD;strokeColor2=#0E7DAD;fontSize=12;fontColor=#ffffff;align=center;metaEdit=1;points=[[0.5,0,0],[1,0.25,0],[1,0.5,0],[1,0.75,0],[0.5,1,0],[0,0.75,0],[0,0.5,0],[0,0.25,0]];resizable=0;" vertex="1" parent="1">
            <mxGeometry x="2430" y="130" width="240" height="160" as="geometry" />
          </mxCell>
        </object>
        <mxCell id="YayIe8A1mY_EZbu5fioP-9" style="edgeStyle=orthogonalEdgeStyle;rounded=0;orthogonalLoop=1;jettySize=auto;html=1;exitX=1;exitY=0.5;exitDx=0;exitDy=0;exitPerimeter=0;" edge="1" parent="1">
          <mxGeometry relative="1" as="geometry">
            <mxPoint x="2430" y="219.38" as="targetPoint" />
            <mxPoint x="2130" y="219.38" as="sourcePoint" />
          </mxGeometry>
        </mxCell>
        <mxCell id="YayIe8A1mY_EZbu5fioP-10" value="&lt;div&gt;Statički servira frontend&lt;/div&gt;&lt;div&gt;aplikaciju kupčevom&lt;/div&gt;&lt;div&gt;browseru&lt;br&gt;&lt;/div&gt;" style="edgeLabel;html=1;align=center;verticalAlign=middle;resizable=0;points=[];" connectable="0" vertex="1" parent="YayIe8A1mY_EZbu5fioP-9">
          <mxGeometry x="0.1009" y="-3" relative="1" as="geometry">
            <mxPoint x="-12" y="-4" as="offset" />
          </mxGeometry>
        </mxCell>
        <mxCell id="qVa8qjfa-b0l-INVonSs-1" value="&lt;div&gt;Započinje proces plaćanja slanjem&lt;/div&gt;&lt;div&gt;API_KEY, AMOUNT, SUBJECT / DESC&lt;/div&gt;&lt;div&gt;&lt;br&gt;&lt;/div&gt;&lt;div&gt;&lt;br&gt;&lt;/div&gt;&lt;div&gt;&lt;br&gt;&lt;/div&gt;&lt;div&gt;U odgovoru dobija &lt;b&gt;ORDER_ID&lt;/b&gt;&lt;br&gt;&lt;/div&gt;" style="text;html=1;align=center;verticalAlign=middle;resizable=0;points=[];autosize=1;strokeColor=none;fillColor=none;" vertex="1" parent="1">
          <mxGeometry x="-90" y="380" width="240" height="100" as="geometry" />
        </mxCell>
        <object placeholders="1" c4Name="REST API Aplikacija za Prodavce" c4Type="Container" c4Technology="FastAPI" c4Description="Pruža vlasnicima prodavnice podešavanje svoje prodavnice (urlovi, naziv, odabir načina plaćanja)" label="&lt;font style=&quot;font-size: 16px&quot;&gt;&lt;b&gt;%c4Name%&lt;/b&gt;&lt;/font&gt;&lt;div&gt;[%c4Type%: %c4Technology%]&lt;/div&gt;&lt;br&gt;&lt;div&gt;&lt;font style=&quot;font-size: 11px&quot;&gt;&lt;font color=&quot;#E6E6E6&quot;&gt;%c4Description%&lt;/font&gt;&lt;/div&gt;" id="qVa8qjfa-b0l-INVonSs-3">
          <mxCell style="rounded=1;whiteSpace=wrap;html=1;fontSize=11;labelBackgroundColor=none;fillColor=#23A2D9;fontColor=#ffffff;align=center;arcSize=10;strokeColor=#0E7DAD;metaEdit=1;resizable=0;points=[[0.25,0,0],[0.5,0,0],[0.75,0,0],[1,0.25,0],[1,0.5,0],[1,0.75,0],[0.75,1,0],[0.5,1,0],[0.25,1,0],[0,0.75,0],[0,0.5,0],[0,0.25,0]];" vertex="1" parent="1">
            <mxGeometry x="410" y="770" width="240" height="120" as="geometry" />
          </mxCell>
        </object>
        <mxCell id="qVa8qjfa-b0l-INVonSs-4" style="edgeStyle=orthogonalEdgeStyle;rounded=0;orthogonalLoop=1;jettySize=auto;html=1;exitX=0.5;exitY=0;exitDx=0;exitDy=0;exitPerimeter=0;entryX=0.5;entryY=1;entryDx=0;entryDy=0;entryPerimeter=0;" edge="1" parent="1" source="W_cVftkf6k1-Y2_iZ0u_-1" target="qVa8qjfa-b0l-INVonSs-3">
          <mxGeometry relative="1" as="geometry" />
        </mxCell>
        <mxCell id="qVa8qjfa-b0l-INVonSs-5" style="edgeStyle=orthogonalEdgeStyle;rounded=0;orthogonalLoop=1;jettySize=auto;html=1;exitX=0.5;exitY=0;exitDx=0;exitDy=0;exitPerimeter=0;entryX=0.5;entryY=1;entryDx=0;entryDy=0;entryPerimeter=0;" edge="1" parent="1" source="qVa8qjfa-b0l-INVonSs-3" target="LQsaFghDRL0EP-A3VGFa-7">
          <mxGeometry relative="1" as="geometry" />
        </mxCell>
        <object placeholders="1" c4Name="Baza podataka" c4Type="Container" c4Technology="e.g. Postgresql" c4Description="Sadrži prodavce (merchant_id, merchant_password)" label="&lt;font style=&quot;font-size: 16px&quot;&gt;&lt;b&gt;%c4Name%&lt;/b&gt;&lt;/font&gt;&lt;div&gt;[%c4Type%:&amp;nbsp;%c4Technology%]&lt;/div&gt;&lt;br&gt;&lt;div&gt;&lt;font style=&quot;font-size: 11px&quot;&gt;&lt;font color=&quot;#E6E6E6&quot;&gt;%c4Description%&lt;/font&gt;&lt;/div&gt;" id="qVa8qjfa-b0l-INVonSs-8">
          <mxCell style="shape=cylinder3;size=15;whiteSpace=wrap;html=1;boundedLbl=1;rounded=0;labelBackgroundColor=none;fillColor=#23A2D9;fontSize=12;fontColor=#ffffff;align=center;strokeColor=#0E7DAD;metaEdit=1;points=[[0.5,0,0],[1,0.25,0],[1,0.5,0],[1,0.75,0],[0.5,1,0],[0,0.75,0],[0,0.5,0],[0,0.25,0]];resizable=0;" vertex="1" parent="1">
            <mxGeometry x="1890" y="540" width="240" height="120" as="geometry" />
          </mxCell>
        </object>
        <mxCell id="ckpXreuxaAEtcQxbjNRh-3" value="&lt;div&gt;podaci:&lt;br&gt;&lt;/div&gt;&lt;div&gt;Korisnik(user, pass)&lt;/div&gt;&lt;div&gt;Paket(naziv, opis, cena)&lt;/div&gt;&lt;div&gt;Pretplata(korisnik_id, paket_id, trajanje, produženje)&lt;/div&gt;&lt;div&gt;Transakcija(id, global_order_id, pretplata_id, status)&lt;br&gt;&lt;/div&gt;" style="shape=note;size=20;whiteSpace=wrap;html=1;align=left;" vertex="1" parent="1">
          <mxGeometry x="-1010" y="319" width="290" height="91" as="geometry" />
        </mxCell>
        <mxCell id="ckpXreuxaAEtcQxbjNRh-4" value="&lt;div&gt;podaci:&lt;br&gt;&lt;/div&gt;&lt;div&gt;Prodavac(merchant_id, api_key, naziv, success/fail/error urls)&lt;br&gt;&lt;/div&gt;&lt;div&gt;Transakcija(order_id, prodavac_id, iznos, opis, status)&lt;/div&gt;&lt;div&gt;NačinPlaćanja(naziv, naziv_servisa)&lt;/div&gt;&lt;div&gt;ProdavacNačinPlaćanja(prodavac_id, nacinplacanja_id)&lt;br&gt;&lt;/div&gt;" style="shape=note;size=20;whiteSpace=wrap;html=1;align=left;" vertex="1" parent="1">
          <mxGeometry x="70" y="650" width="350" height="90" as="geometry" />
        </mxCell>
        <mxCell id="ckpXreuxaAEtcQxbjNRh-5" value="&lt;div&gt;.env&lt;/div&gt;&lt;div&gt;PSP_API_KEY&lt;br&gt;&lt;/div&gt;" style="shape=note;size=20;whiteSpace=wrap;html=1;align=left;" vertex="1" parent="1">
          <mxGeometry x="-170" y="470" width="120" height="50" as="geometry" />
        </mxCell>
        <object placeholders="1" c4Name="Baza podataka" c4Type="Container" c4Technology="e.g. Postgresql" c4Description="Čuva podatke o prodavcima koji podržavaju banku kao način plaćanja" label="&lt;font style=&quot;font-size: 16px&quot;&gt;&lt;b&gt;%c4Name%&lt;/b&gt;&lt;/font&gt;&lt;div&gt;[%c4Type%:&amp;nbsp;%c4Technology%]&lt;/div&gt;&lt;br&gt;&lt;div&gt;&lt;font style=&quot;font-size: 11px&quot;&gt;&lt;font color=&quot;#E6E6E6&quot;&gt;%c4Description%&lt;/font&gt;&lt;/div&gt;" id="pCrcapKARMCcsdLXs8J3-1">
          <mxCell style="shape=cylinder3;size=15;whiteSpace=wrap;html=1;boundedLbl=1;rounded=0;labelBackgroundColor=none;fillColor=#23A2D9;fontSize=12;fontColor=#ffffff;align=center;strokeColor=#0E7DAD;metaEdit=1;points=[[0.5,0,0],[1,0.25,0],[1,0.5,0],[1,0.75,0],[0.5,1,0],[0,0.75,0],[0,0.5,0],[0,0.25,0]];resizable=0;" vertex="1" parent="1">
            <mxGeometry x="1170" y="200" width="240" height="120" as="geometry" />
          </mxCell>
        </object>
        <object placeholders="1" c4Name="REST API Handler za plaćanje bankom" c4Type="Container" c4Technology="FastAPI" c4Description="" label="&lt;font style=&quot;font-size: 16px&quot;&gt;&lt;b&gt;%c4Name%&lt;/b&gt;&lt;/font&gt;&lt;div&gt;[%c4Type%: %c4Technology%]&lt;/div&gt;&lt;br&gt;&lt;div&gt;&lt;font style=&quot;font-size: 11px&quot;&gt;&lt;font color=&quot;#E6E6E6&quot;&gt;%c4Description%&lt;/font&gt;&lt;/div&gt;" id="ISreFUNMZtMqdLEje3Ol-1">
          <mxCell style="rounded=1;whiteSpace=wrap;html=1;fontSize=11;labelBackgroundColor=none;fillColor=#23A2D9;fontColor=#ffffff;align=center;arcSize=10;strokeColor=#0E7DAD;metaEdit=1;resizable=0;points=[[0.25,0,0],[0.5,0,0],[0.75,0,0],[1,0.25,0],[1,0.5,0],[1,0.75,0],[0.75,1,0],[0.5,1,0],[0.25,1,0],[0,0.75,0],[0,0.5,0],[0,0.25,0]];" vertex="1" parent="1">
            <mxGeometry x="1170" y="360" width="240" height="120" as="geometry" />
          </mxCell>
        </object>
        <mxCell id="ISreFUNMZtMqdLEje3Ol-2" value="&lt;div&gt;podaci:&lt;br&gt;&lt;/div&gt;&lt;div&gt;Prodavac(global_merchant_id, merchant_id, merchant_password)&lt;/div&gt;&lt;div&gt;Transakcija(global_order_id, merchant_order_id, merchant_timestamp)&lt;br&gt;&lt;/div&gt;" style="shape=note;size=20;whiteSpace=wrap;html=1;align=left;" vertex="1" parent="1">
          <mxGeometry x="1430" y="215" width="390" height="90" as="geometry" />
        </mxCell>
        <mxCell id="ISreFUNMZtMqdLEje3Ol-3" style="edgeStyle=orthogonalEdgeStyle;rounded=0;orthogonalLoop=1;jettySize=auto;html=1;exitX=1;exitY=0.5;exitDx=0;exitDy=0;exitPerimeter=0;entryX=0;entryY=0.5;entryDx=0;entryDy=0;entryPerimeter=0;strokeColor=#FF5A08;" edge="1" parent="1" source="qZ7AquHbZ34GRcM63JPv-1" target="ISreFUNMZtMqdLEje3Ol-1">
          <mxGeometry relative="1" as="geometry" />
        </mxCell>
        <mxCell id="ISreFUNMZtMqdLEje3Ol-4" value="&lt;div&gt;Pravi API poziv i prosleđuje&amp;nbsp;&lt;/div&gt;&lt;div&gt;ORDER_ID&lt;/div&gt;&lt;div&gt;MERCHANT_ID&lt;/div&gt;&lt;div&gt;AMOUNT&lt;/div&gt;&lt;div&gt;SUCCESS, FAIL, ERROR URLS&lt;/div&gt;" style="edgeLabel;html=1;align=center;verticalAlign=middle;resizable=0;points=[];strokeColor=#FF5A08;" connectable="0" vertex="1" parent="ISreFUNMZtMqdLEje3Ol-3">
          <mxGeometry x="-0.2326" y="4" relative="1" as="geometry">
            <mxPoint x="22" y="-39" as="offset" />
          </mxGeometry>
        </mxCell>
        <mxCell id="ISreFUNMZtMqdLEje3Ol-5" value="&lt;div&gt;Napomena: &lt;b&gt;MERCHANT_ID&lt;/b&gt; je globalan i isti je za prodavca u glavnoj bazi podataka i za istog prodavca u bazama podataka svih hendlera plaćanja. Isto važi i za &lt;b&gt;ORDER_ID&lt;/b&gt;.&lt;/div&gt;" style="shape=note;size=20;whiteSpace=wrap;html=1;align=left;" vertex="1" parent="1">
          <mxGeometry x="70" y="750" width="240" height="90" as="geometry" />
        </mxCell>
        <mxCell id="ISreFUNMZtMqdLEje3Ol-8" style="edgeStyle=orthogonalEdgeStyle;rounded=0;orthogonalLoop=1;jettySize=auto;html=1;exitX=0.5;exitY=0;exitDx=0;exitDy=0;exitPerimeter=0;entryX=0.5;entryY=1;entryDx=0;entryDy=0;entryPerimeter=0;" edge="1" parent="1" source="ISreFUNMZtMqdLEje3Ol-1" target="pCrcapKARMCcsdLXs8J3-1">
          <mxGeometry relative="1" as="geometry" />
        </mxCell>
        <mxCell id="1_0cgzZzKMbiGSUiTAvf-2" value="Beleži novu transakciju" style="edgeLabel;html=1;align=center;verticalAlign=middle;resizable=0;points=[];" connectable="0" vertex="1" parent="ISreFUNMZtMqdLEje3Ol-8">
          <mxGeometry x="-0.25" y="3" relative="1" as="geometry">
            <mxPoint as="offset" />
          </mxGeometry>
        </mxCell>
        <mxCell id="ISreFUNMZtMqdLEje3Ol-9" style="edgeStyle=orthogonalEdgeStyle;rounded=0;orthogonalLoop=1;jettySize=auto;html=1;exitX=1;exitY=0.5;exitDx=0;exitDy=0;exitPerimeter=0;entryX=0;entryY=0.5;entryDx=0;entryDy=0;entryPerimeter=0;" edge="1" parent="1" source="ISreFUNMZtMqdLEje3Ol-1" target="YayIe8A1mY_EZbu5fioP-6">
          <mxGeometry relative="1" as="geometry" />
        </mxCell>
        <object placeholders="1" c4Name="REST API Aplikacija za Kupce" c4Type="Container" c4Technology="FastAPI" c4Description="" label="&lt;font style=&quot;font-size: 16px&quot;&gt;&lt;b&gt;%c4Name%&lt;/b&gt;&lt;/font&gt;&lt;div&gt;[%c4Type%: %c4Technology%]&lt;/div&gt;&lt;br&gt;&lt;div&gt;&lt;font style=&quot;font-size: 11px&quot;&gt;&lt;font color=&quot;#E6E6E6&quot;&gt;%c4Description%&lt;/font&gt;&lt;/div&gt;" id="ISreFUNMZtMqdLEje3Ol-10">
          <mxCell style="rounded=1;whiteSpace=wrap;html=1;fontSize=11;labelBackgroundColor=none;fillColor=#23A2D9;fontColor=#ffffff;align=center;arcSize=10;strokeColor=#0E7DAD;metaEdit=1;resizable=0;points=[[0.25,0,0],[0.5,0,0],[0.75,0,0],[1,0.25,0],[1,0.5,0],[1,0.75,0],[0.75,1,0],[0.5,1,0],[0.25,1,0],[0,0.75,0],[0,0.5,0],[0,0.25,0]];" vertex="1" parent="1">
            <mxGeometry x="2430" y="360" width="240" height="120" as="geometry" />
          </mxCell>
        </object>
        <mxCell id="ISreFUNMZtMqdLEje3Ol-12" value="&lt;div&gt;Pravi API pozive ka&lt;/div&gt;" style="edgeLabel;html=1;align=center;verticalAlign=middle;resizable=0;points=[];" connectable="0" vertex="1" parent="1">
          <mxGeometry x="2550" y="319" as="geometry">
            <mxPoint x="-1" y="-2" as="offset" />
          </mxGeometry>
        </mxCell>
        <mxCell id="ISreFUNMZtMqdLEje3Ol-14" style="edgeStyle=orthogonalEdgeStyle;rounded=0;orthogonalLoop=1;jettySize=auto;html=1;exitX=0.5;exitY=0;exitDx=0;exitDy=0;exitPerimeter=0;entryX=0.5;entryY=0;entryDx=0;entryDy=0;entryPerimeter=0;" edge="1" parent="1" source="iqNdqKKUcrkHKuxMiaks-5" target="YayIe8A1mY_EZbu5fioP-7">
          <mxGeometry relative="1" as="geometry">
            <Array as="points">
              <mxPoint x="820" y="60" />
              <mxPoint x="2010" y="60" />
            </Array>
          </mxGeometry>
        </mxCell>
        <mxCell id="ISreFUNMZtMqdLEje3Ol-18" value="Prilikom odabira banke kao načina plaćanja, redirektuje korisnika na &lt;b&gt;PAYMENT_URL&lt;/b&gt; dobijenog od hendlera za plaćanje bankom&lt;b&gt;&lt;br&gt;&lt;/b&gt;" style="edgeLabel;html=1;align=center;verticalAlign=middle;resizable=0;points=[];" connectable="0" vertex="1" parent="ISreFUNMZtMqdLEje3Ol-14">
          <mxGeometry x="-0.4346" y="3" relative="1" as="geometry">
            <mxPoint x="36" as="offset" />
          </mxGeometry>
        </mxCell>
        <mxCell id="ISreFUNMZtMqdLEje3Ol-16" value="&lt;div&gt;Napomena:&lt;/div&gt;&lt;div&gt;GLOBAL_MERCHANT_ID u ovoj bazi = MERCHANT_ID u glavnoj bazi&lt;/div&gt;&lt;div&gt;MERCHANT_ID u ovoj bazi = MERCHANT_ID u bazi banke&lt;/div&gt;&lt;div&gt;GLOBAL_ORDER_ID u ovoj bazi = ORDER_ID u glavnoj bazi&lt;/div&gt;&lt;div&gt;MERCHANT_ORDER_ID u ovoj bazi = MERCHANT_ORDER_ID u bazi banke&lt;br&gt;&lt;/div&gt;" style="shape=note;size=20;whiteSpace=wrap;html=1;align=left;" vertex="1" parent="1">
          <mxGeometry x="1430" y="120" width="390" height="90" as="geometry" />
        </mxCell>
        <mxCell id="ISreFUNMZtMqdLEje3Ol-19" value="&lt;div&gt;podaci:&lt;br&gt;&lt;/div&gt;&lt;div&gt;Prodavac(merchant_id, merchant_password)&lt;/div&gt;&lt;div&gt;Transakcija(merchant_order_id, merchant_timestamp, payment_url, payment_id)&lt;br&gt;&lt;/div&gt;" style="shape=note;size=20;whiteSpace=wrap;html=1;align=left;" vertex="1" parent="1">
          <mxGeometry x="2125" y="620" width="315" height="90" as="geometry" />
        </mxCell>
        <mxCell id="0hhu_PJgDvUbuQyEGKLK-13" style="edgeStyle=orthogonalEdgeStyle;rounded=0;orthogonalLoop=1;jettySize=auto;html=1;exitX=0;exitY=0.25;exitDx=0;exitDy=0;exitPerimeter=0;strokeColor=#000099;" edge="1" parent="1" source="ISreFUNMZtMqdLEje3Ol-20">
          <mxGeometry relative="1" as="geometry">
            <mxPoint x="940" y="450" as="targetPoint" />
            <Array as="points">
              <mxPoint x="1030" y="770" />
              <mxPoint x="1030" y="450" />
            </Array>
          </mxGeometry>
        </mxCell>
        <object placeholders="1" c4Name="REST API Handler za plaćanje kriptom" c4Type="Container" c4Technology="FastAPI" c4Description="Proverava stanje računa na adresama transakcija koje su u toku. Ažurira statuse kada je uplaćeno onoliko koliko treba." label="&lt;font style=&quot;font-size: 16px&quot;&gt;&lt;b&gt;%c4Name%&lt;/b&gt;&lt;/font&gt;&lt;div&gt;[%c4Type%: %c4Technology%]&lt;/div&gt;&lt;br&gt;&lt;div&gt;&lt;font style=&quot;font-size: 11px&quot;&gt;&lt;font color=&quot;#E6E6E6&quot;&gt;%c4Description%&lt;/font&gt;&lt;/div&gt;" id="ISreFUNMZtMqdLEje3Ol-20">
          <mxCell style="rounded=1;whiteSpace=wrap;html=1;fontSize=11;labelBackgroundColor=none;fillColor=#23A2D9;fontColor=#ffffff;align=center;arcSize=10;strokeColor=#0E7DAD;metaEdit=1;resizable=0;points=[[0.25,0,0],[0.5,0,0],[0.75,0,0],[1,0.25,0],[1,0.5,0],[1,0.75,0],[0.75,1,0],[0.5,1,0],[0.25,1,0],[0,0.75,0],[0,0.5,0],[0,0.25,0]];" vertex="1" parent="1">
            <mxGeometry x="1170" y="740" width="240" height="120" as="geometry" />
          </mxCell>
        </object>
        <object placeholders="1" c4Name="Baza podataka" c4Type="Container" c4Technology="e.g. Postgresql" c4Description="Čuva podatke o prodavcima koji podržavaju kripto kao način plaćanja" label="&lt;font style=&quot;font-size: 16px&quot;&gt;&lt;b&gt;%c4Name%&lt;/b&gt;&lt;/font&gt;&lt;div&gt;[%c4Type%:&amp;nbsp;%c4Technology%]&lt;/div&gt;&lt;br&gt;&lt;div&gt;&lt;font style=&quot;font-size: 11px&quot;&gt;&lt;font color=&quot;#E6E6E6&quot;&gt;%c4Description%&lt;/font&gt;&lt;/div&gt;" id="ISreFUNMZtMqdLEje3Ol-21">
          <mxCell style="shape=cylinder3;size=15;whiteSpace=wrap;html=1;boundedLbl=1;rounded=0;labelBackgroundColor=none;fillColor=#23A2D9;fontSize=12;fontColor=#ffffff;align=center;strokeColor=#0E7DAD;metaEdit=1;points=[[0.5,0,0],[1,0.25,0],[1,0.5,0],[1,0.75,0],[0.5,1,0],[0,0.75,0],[0,0.5,0],[0,0.25,0]];resizable=0;" vertex="1" parent="1">
            <mxGeometry x="1170" y="590" width="240" height="120" as="geometry" />
          </mxCell>
        </object>
        <mxCell id="ISreFUNMZtMqdLEje3Ol-22" style="edgeStyle=orthogonalEdgeStyle;rounded=0;orthogonalLoop=1;jettySize=auto;html=1;exitX=0.5;exitY=0;exitDx=0;exitDy=0;exitPerimeter=0;entryX=0.5;entryY=1;entryDx=0;entryDy=0;entryPerimeter=0;" edge="1" parent="1" source="ISreFUNMZtMqdLEje3Ol-20" target="ISreFUNMZtMqdLEje3Ol-21">
          <mxGeometry relative="1" as="geometry" />
        </mxCell>
        <mxCell id="ISreFUNMZtMqdLEje3Ol-23" style="edgeStyle=orthogonalEdgeStyle;rounded=0;orthogonalLoop=1;jettySize=auto;html=1;entryX=0;entryY=0.5;entryDx=0;entryDy=0;entryPerimeter=0;strokeColor=#FF5A08;" edge="1" parent="1" source="qZ7AquHbZ34GRcM63JPv-1" target="ISreFUNMZtMqdLEje3Ol-20">
          <mxGeometry relative="1" as="geometry">
            <mxPoint x="940" y="450" as="sourcePoint" />
            <Array as="points">
              <mxPoint x="1000" y="420" />
              <mxPoint x="1000" y="800" />
            </Array>
          </mxGeometry>
        </mxCell>
        <mxCell id="0hhu_PJgDvUbuQyEGKLK-1" value="&lt;font style=&quot;font-size: 18px;&quot;&gt;1&lt;/font&gt;" style="shape=ellipse;html=1;dashed=0;whiteSpace=wrap;aspect=fixed;perimeter=ellipsePerimeter;" vertex="1" parent="1">
          <mxGeometry x="-340" y="110" width="60" height="60" as="geometry" />
        </mxCell>
        <mxCell id="0hhu_PJgDvUbuQyEGKLK-2" value="&lt;font style=&quot;font-size: 18px;&quot;&gt;2&lt;/font&gt;" style="shape=ellipse;html=1;dashed=0;whiteSpace=wrap;aspect=fixed;perimeter=ellipsePerimeter;" vertex="1" parent="1">
          <mxGeometry x="700" y="110" width="60" height="60" as="geometry" />
        </mxCell>
        <mxCell id="0hhu_PJgDvUbuQyEGKLK-3" value="&lt;font style=&quot;font-size: 18px;&quot;&gt;3a&lt;/font&gt;" style="shape=ellipse;html=1;dashed=0;whiteSpace=wrap;aspect=fixed;perimeter=ellipsePerimeter;" vertex="1" parent="1">
          <mxGeometry x="2430" y="110" width="60" height="60" as="geometry" />
        </mxCell>
        <mxCell id="0hhu_PJgDvUbuQyEGKLK-5" style="edgeStyle=orthogonalEdgeStyle;rounded=0;orthogonalLoop=1;jettySize=auto;html=1;exitX=0;exitY=0.75;exitDx=0;exitDy=0;exitPerimeter=0;entryX=1;entryY=0.75;entryDx=0;entryDy=0;entryPerimeter=0;" edge="1" parent="1" source="ervIR7irUqciZhTlSeTI-4" target="-Dfa5dCI5ny1sUVRKkH5-3">
          <mxGeometry relative="1" as="geometry" />
        </mxCell>
        <mxCell id="0hhu_PJgDvUbuQyEGKLK-8" value="&lt;div&gt;podaci:&lt;br&gt;&lt;/div&gt;&lt;div&gt;Prodavac(global_merchant_id, deposit_address_ids)&lt;/div&gt;&lt;div&gt;DepositAddress(prodavac_id, address, stanje_u_btc)&lt;br&gt;&lt;/div&gt;&lt;div&gt;Transakcija(id, global_order_id, deposit_address_id, amount, status)&lt;br&gt;&lt;/div&gt;" style="shape=note;size=20;whiteSpace=wrap;html=1;align=left;" vertex="1" parent="1">
          <mxGeometry x="1420" y="600" width="390" height="80" as="geometry" />
        </mxCell>
        <mxCell id="0hhu_PJgDvUbuQyEGKLK-11" value="&lt;div align=&quot;center&quot;&gt;U odgovoru dobija &lt;b&gt;&lt;br&gt;&lt;/b&gt;&lt;/div&gt;&lt;div align=&quot;center&quot;&gt;&lt;b&gt;PAYMENT_URL&lt;/b&gt;&lt;/div&gt;" style="text;whiteSpace=wrap;html=1;align=center;" vertex="1" parent="1">
          <mxGeometry x="1020" y="450" width="140" height="30" as="geometry" />
        </mxCell>
        <mxCell id="-77vZN8LFe2HAbXCW7Fm-4" style="edgeStyle=orthogonalEdgeStyle;rounded=0;orthogonalLoop=1;jettySize=auto;html=1;exitX=0;exitY=0.5;exitDx=0;exitDy=0;exitPerimeter=0;" edge="1" parent="1" source="0hhu_PJgDvUbuQyEGKLK-14" target="ISreFUNMZtMqdLEje3Ol-20">
          <mxGeometry relative="1" as="geometry" />
        </mxCell>
        <mxCell id="-77vZN8LFe2HAbXCW7Fm-5" value="&lt;div&gt;Long polluje&lt;/div&gt;&lt;div&gt;status date&lt;/div&gt;&lt;div&gt;transakcije&lt;/div&gt;&lt;div&gt;čekajući&lt;/div&gt;&lt;div&gt;promenu&lt;br&gt;&lt;/div&gt;" style="edgeLabel;html=1;align=center;verticalAlign=middle;resizable=0;points=[];" connectable="0" vertex="1" parent="-77vZN8LFe2HAbXCW7Fm-4">
          <mxGeometry x="0.0993" y="4" relative="1" as="geometry">
            <mxPoint x="9" as="offset" />
          </mxGeometry>
        </mxCell>
        <object placeholders="1" c4Name="Frontend Aplikacija" c4Type="Container" c4Technology="VueJS" c4Description="QR kod sa deposit adresom i iznosom.&#xa;Long polluje API čekajući na apdejt statusa date transakcije.&#xa;Šalje korisnika na SUCCESS/FAIL/ERROR URL." label="&lt;font style=&quot;font-size: 16px&quot;&gt;&lt;b&gt;%c4Name%&lt;/b&gt;&lt;/font&gt;&lt;div&gt;[%c4Type%:&amp;nbsp;%c4Technology%]&lt;/div&gt;&lt;br&gt;&lt;div&gt;&lt;font style=&quot;font-size: 11px&quot;&gt;&lt;font color=&quot;#E6E6E6&quot;&gt;%c4Description%&lt;/font&gt;&lt;/div&gt;" id="0hhu_PJgDvUbuQyEGKLK-14">
          <mxCell style="shape=mxgraph.c4.webBrowserContainer2;whiteSpace=wrap;html=1;boundedLbl=1;rounded=0;labelBackgroundColor=none;strokeColor=#118ACD;fillColor=#23A2D9;strokeColor=#118ACD;strokeColor2=#0E7DAD;fontSize=12;fontColor=#ffffff;align=center;metaEdit=1;points=[[0.5,0,0],[1,0.25,0],[1,0.5,0],[1,0.75,0],[0.5,1,0],[0,0.75,0],[0,0.5,0],[0,0.25,0]];resizable=0;" vertex="1" parent="1">
            <mxGeometry x="1500" y="720" width="240" height="160" as="geometry" />
          </mxCell>
        </object>
        <mxCell id="0hhu_PJgDvUbuQyEGKLK-15" value="Web server izostavljen radi čitljivosti" style="shape=note;size=20;whiteSpace=wrap;html=1;align=left;" vertex="1" parent="1">
          <mxGeometry x="1770" y="775" width="230" height="40" as="geometry" />
        </mxCell>
        <mxCell id="0hhu_PJgDvUbuQyEGKLK-4" value="&lt;font style=&quot;font-size: 18px;&quot;&gt;3b&lt;/font&gt;" style="shape=ellipse;html=1;dashed=0;whiteSpace=wrap;aspect=fixed;perimeter=ellipsePerimeter;" vertex="1" parent="1">
          <mxGeometry x="1500" y="690" width="60" height="60" as="geometry" />
        </mxCell>
        <mxCell id="1_0cgzZzKMbiGSUiTAvf-1" value="PAYMENT_URL koji vrati handler za plaćanje kriptom u sebi sadrži ID transakcije. Na njega se šalje korisnik." style="shape=note;size=20;whiteSpace=wrap;html=1;align=left;" vertex="1" parent="1">
          <mxGeometry x="1770" y="830" width="230" height="60" as="geometry" />
        </mxCell>
        <mxCell id="1_0cgzZzKMbiGSUiTAvf-3" value="Beleži novu transakciju" style="edgeLabel;html=1;align=center;verticalAlign=middle;resizable=0;points=[];" connectable="0" vertex="1" parent="1">
          <mxGeometry x="1290" y="726" as="geometry" />
        </mxCell>
        <object placeholders="1" c4Name="Blockchain Explorer API" c4Type="Software System" c4Description="Pruža API za proveru balansa za datu adresu" label="&lt;font style=&quot;font-size: 16px&quot;&gt;&lt;b&gt;%c4Name%&lt;/b&gt;&lt;/font&gt;&lt;div&gt;[%c4Type%]&lt;/div&gt;&lt;br&gt;&lt;div&gt;&lt;font style=&quot;font-size: 11px&quot;&gt;&lt;font color=&quot;#cccccc&quot;&gt;%c4Description%&lt;/font&gt;&lt;/div&gt;" id="-77vZN8LFe2HAbXCW7Fm-1">
          <mxCell style="rounded=1;whiteSpace=wrap;html=1;labelBackgroundColor=none;fillColor=#8C8496;fontColor=#ffffff;align=center;arcSize=10;strokeColor=#736782;metaEdit=1;resizable=0;points=[[0.25,0,0],[0.5,0,0],[0.75,0,0],[1,0.25,0],[1,0.5,0],[1,0.75,0],[0.75,1,0],[0.5,1,0],[0.25,1,0],[0,0.75,0],[0,0.5,0],[0,0.25,0]];" vertex="1" parent="1">
            <mxGeometry x="1170" y="1100" width="240" height="120" as="geometry" />
          </mxCell>
        </object>
        <mxCell id="-77vZN8LFe2HAbXCW7Fm-7" style="edgeStyle=orthogonalEdgeStyle;rounded=0;orthogonalLoop=1;jettySize=auto;html=1;exitX=0.5;exitY=1;exitDx=0;exitDy=0;exitPerimeter=0;entryX=0.5;entryY=0;entryDx=0;entryDy=0;entryPerimeter=0;" edge="1" parent="1" source="ISreFUNMZtMqdLEje3Ol-20" target="-77vZN8LFe2HAbXCW7Fm-1">
          <mxGeometry relative="1" as="geometry" />
        </mxCell>
        <mxCell id="-77vZN8LFe2HAbXCW7Fm-8" value="&lt;div&gt;Ponavlja upite u stanje na svim&lt;/div&gt;&lt;div&gt;adresama transakcija koje su u toku.&lt;/div&gt;" style="edgeLabel;html=1;align=center;verticalAlign=middle;resizable=0;points=[];" connectable="0" vertex="1" parent="-77vZN8LFe2HAbXCW7Fm-7">
          <mxGeometry x="-0.2464" relative="1" as="geometry">
            <mxPoint as="offset" />
          </mxGeometry>
        </mxCell>
        <mxCell id="_p6SzYQmGelnvoDJp6RO-1" style="edgeStyle=orthogonalEdgeStyle;rounded=0;orthogonalLoop=1;jettySize=auto;html=1;exitX=1;exitY=0.75;exitDx=0;exitDy=0;exitPerimeter=0;entryX=0;entryY=0.75;entryDx=0;entryDy=0;entryPerimeter=0;strokeColor=#000099;" edge="1" parent="1" source="qZ7AquHbZ34GRcM63JPv-1" target="ISreFUNMZtMqdLEje3Ol-1">
          <mxGeometry relative="1" as="geometry" />
        </mxCell>
      </root>
    </mxGraphModel>
  </diagram>
</mxfile>
